<?xml version="1.0" encoding="UTF-8" standalone="no"?>
<!-- Created with Inkscape (http://www.inkscape.org/) -->
<svg
   xmlns:svg="http://www.w3.org/2000/svg"
   xmlns="http://www.w3.org/2000/svg"
   xmlns:xlink="http://www.w3.org/1999/xlink"
   version="1.0"
   width="1052.3622"
   height="744.09448"
   id="svg4659">
  <defs
     id="defs4661">
    <linearGradient
       id="linearGradient2799">
      <stop
         style="stop-color:black;stop-opacity:1"
         offset="0"
         id="stop2801" />
      <stop
         style="stop-color:black;stop-opacity:0"
         offset="1"
         id="stop2803" />
    </linearGradient>
    <radialGradient
       cx="373.71283"
       cy="342.55038"
       r="127.80542"
       fx="373.71283"
       fy="342.55038"
       id="radialGradient2805"
       xlink:href="#linearGradient2799"
       gradientUnits="userSpaceOnUse"
       gradientTransform="matrix(1,0,0,0.838827,-11.17779,25.02419)" />
    <linearGradient
       id="linearGradient2853">
      <stop
         style="stop-color:#ffc661;stop-opacity:1"
         offset="0"
         id="stop2855" />
      <stop
         style="stop-color:white;stop-opacity:0"
         offset="1"
         id="stop2857" />
    </linearGradient>
    <linearGradient
       x1="362.76776"
       y1="258.77704"
       x2="374.0036"
       y2="302.48007"
       id="linearGradient2843"
       xlink:href="#linearGradient2853"
       gradientUnits="userSpaceOnUse"
       gradientTransform="matrix(1.034098,0.142593,0,1.010281,-25.63749,-85.7375)" />
    <linearGradient
       id="linearGradient3002">
      <stop
         style="stop-color:#27c7f0;stop-opacity:1"
         offset="0"
         id="stop3004" />
      <stop
         style="stop-color:#31bbdf;stop-opacity:0.49803922"
         offset="0.5"
         id="stop3006" />
      <stop
         style="stop-color:black;stop-opacity:0"
         offset="1"
         id="stop3008" />
    </linearGradient>
    <radialGradient
       cx="84.097229"
       cy="527.09003"
       r="9.5843468"
       fx="84.097229"
       fy="527.09003"
       id="radialGradient2977"
       xlink:href="#linearGradient3002"
       gradientUnits="userSpaceOnUse"
       gradientTransform="matrix(1.108421,0,0,0.567574,-21.30349,197.9939)" />
    <linearGradient
       id="linearGradient2971">
      <stop
         style="stop-color:#27c7f0;stop-opacity:1"
         offset="0"
         id="stop2973" />
      <stop
         style="stop-color:#31bbdf;stop-opacity:0.49803922"
         offset="0.5"
         id="stop2979" />
      <stop
         style="stop-color:black;stop-opacity:0"
         offset="1"
         id="stop2975" />
    </linearGradient>
    <radialGradient
       cx="116.44794"
       cy="500.44281"
       r="26.378759"
       fx="116.44794"
       fy="500.44281"
       id="radialGradient3010"
       xlink:href="#linearGradient2971"
       gradientUnits="userSpaceOnUse"
       gradientTransform="matrix(1.012049,-0.368613,0.101346,0.278253,-65.28609,376.0668)" />
  </defs>
  <g
     id="layer1">
    <g
       transform="translate(14.28571,17.14286)"
       id="g4728">
      <path
         d="M 372.41598,205.15805 C 363.17626,206.96269 355.07388,213.08056 345.35348,212.6268 C 337.11116,212.54954 328.79564,214.61637 320.99421,211.66888 C 309.00411,208.99926 296.22096,212.8019 287.32223,221.03305 C 265.67939,236.45153 250.74877,259.89625 240.04098,283.84555 C 229.14527,313.43532 235.54261,348.02098 254.38473,373.03305 C 263.36485,386.5518 276.52767,397.87397 292.51022,401.59845 C 303.92603,405.85913 313.71924,415.31613 326.66598,414.3143 C 335.52037,414.08946 344.79994,412.02237 352.66598,417.1268 C 364.96307,421.30689 381.07737,420.80278 390.00973,410.2518 C 396.46844,407.6007 405.48509,411.0133 410.10348,404.1268 C 418.36707,398.45172 425.79077,391.0552 434.54098,386.3768 C 449.86846,381.09241 459.08274,366.4979 469.60348,355.03305 C 479.84866,341.15886 488.30952,325.05287 490.29098,307.72055 C 491.05195,291.08196 482.89007,275.99686 475.91598,261.53305 C 468.75682,248.78156 456.03288,241.32338 445.85348,231.28305 C 437.66536,224.07092 427.42809,218.96767 416.53829,217.9424 C 402.08114,212.95329 387.69072,206.51654 372.41598,205.15805 z "
         style="opacity:1;fill:#f60;fill-rule:evenodd;stroke:url(#radialGradient2805);stroke-width:0.2;stroke-linecap:butt;stroke-linejoin:miter;stroke-miterlimit:4;stroke-opacity:1;display:inline"
         id="path2788" />
      <path
         d="M 387.84027,217.8492 C 379.44555,216.26961 378.27239,219.33947 373.98431,218.50489 C 370.87276,218.73642 367.04847,216.6128 365.38725,217.83259 C 361.52096,221.7191 355.9185,215.3757 351.18222,216.26515 C 351.41088,217.8675 360.235,223.74007 353.64578,223.13899 C 351.34613,220.12751 348.48776,214.67977 345.69415,220.57871 C 343.91503,225.34498 336.58189,222.89268 335.39801,223.2589 C 338.27783,224.65859 342.02536,226.49198 344.66666,227.27116 C 342.57533,226.6274 340.51965,225.85095 338.49438,224.99934 C 344.66852,223.57158 335.73414,222.3474 333.19463,222.40585 C 329.27083,222.08772 329.63509,215.58137 324.79467,218.2237 C 321.30571,219.26877 318.57166,224.40367 314.85801,220.08387 C 312.10331,218.53089 310.71809,219.29695 313.59317,221.41143 C 317.46148,224.25937 314.97409,229.67482 314.60454,233.5548 C 308.95143,234.12303 312.00241,240.00976 308.69427,243.10466 C 306.06387,246.74544 306.09038,253.17131 309.7287,256.17511 C 312.94455,257.41468 313.81342,261.28649 314.86383,263.38212 C 316.24957,259.28513 313.38512,254.83862 315.90976,251.0002 C 319.06346,247.92381 320.53664,243.9329 321.07836,239.59991 C 323.62921,233.12813 326.20545,244.49181 324.92577,246.95144 C 323.6101,252.50371 320.1224,258.00945 323.10708,263.80452 C 324.92307,267.81671 326.77669,271.89436 328.95998,275.68108 C 329.54988,271.21035 329.04773,265.59796 332.86291,261.90076 C 334.49084,257.84471 332.14546,253.56655 332.74222,249.36115 C 332.20828,246.38166 332.94172,243.49637 336.24634,243.43024 C 335.51759,240.38273 331.75985,234.36544 334.7703,232.67722 C 338.45211,236.72173 339.44316,242.13913 338.61601,247.39866 C 339.81785,252.24409 340.57502,257.25593 342.10899,262.00479 C 344.7953,267.00592 346.14881,272.4694 347.15496,278.00205 C 348.18673,284.26821 352.44599,277.67666 352.27733,274.4572 C 355.52705,269.91613 352.00441,264.95997 350.16851,260.6372 C 348.28707,256.74468 348.24561,252.03518 349.3557,247.92898 C 352.44788,241.6774 354.95886,252.40582 353.79581,255.28054 C 351.7791,259.41138 356.7473,261.92899 358.93089,258.75774 C 358.62278,253.92107 358.3337,249.0489 357.56156,244.26264 C 355.97972,237.81274 359.58587,246.51208 360.77186,248.20037 C 363.16045,252.65768 364.67547,259.07062 370.96935,259.11857 C 375.95209,260.63638 376.03336,266.86454 378.33,270.7143 C 379.64381,275.35425 377.41578,281.4059 381.7204,284.85694 C 386.19757,286.59989 380.643,277.89847 380.9565,275.46541 C 379.48302,270.92191 378.2347,260.62657 376.35256,253.30314 C 372.54194,248.83564 378.74603,246.97012 378.72402,242.90355 C 380.64271,246.84122 387.14132,259.38882 388.91995,263.30523 C 389.87298,266.33339 387.18363,270.87247 389.04083,272.97491 C 391.22453,268.89429 388.96421,263.89986 389.71457,259.43446 C 389.94323,255.64418 390.42855,251.49426 392.47701,248.26153 C 395.14274,246.19882 395.38586,241.53197 396.36871,239.5953 C 398.87425,244.17322 400.01126,249.37387 401.92294,254.21398 C 402.67515,258.13799 399.34602,261.98588 403.33103,265.10067 C 403.58587,269.21383 406.6362,273.23543 404.29375,277.27319 C 404.53404,281.05242 399.66786,291.24236 407.06898,289.14353 C 407.03893,284.44198 404.49417,279.39603 406.80951,274.5465 C 409.15167,269.63743 408.31098,263.82717 404.99983,259.58474 C 403.75367,254.75124 409.3981,251.40032 407.99927,246.28186 C 408.55691,241.52326 405.13447,237.74997 404.28026,233.24606 C 402.99026,231.48868 409.24458,234.78688 410.64243,235.27037 C 415.79618,238.23485 408.46537,229.58138 406.04929,229.09812 C 401.43058,226.64834 400.56865,219.11557 394.39767,219.57563 C 392.03543,219.61471 390.05401,218.39209 387.84027,217.8492 z M 309.57196,219.81149 C 306.02843,222.81813 302.97313,225.59365 301.09038,229.99953 C 299.64001,234.62091 299.33577,239.40688 297.4213,243.86663 C 295.84242,248.08068 289.57568,252.02957 289.08016,256.34945 C 289.2022,260.85571 285.40633,266.42712 288.40685,270.22105 C 292.2868,268.74009 289.88064,261.20049 292.16809,257.64425 C 295.05246,253.94134 304.08464,250.54925 304.74831,245.87316 C 306.78614,241.23497 309.1565,236.67846 311.89243,232.37659 C 313.23159,228.5853 320.63412,225.83863 319.57556,222.16662 C 315.6392,221.49437 310.06444,225.56805 309.57196,219.81149 z M 380.70709,225.68809 C 381.67545,225.15765 383.82085,224.69214 386.10439,225.08245 C 387.98804,225.4044 390.96892,227.24795 392.7227,228.11068 C 394.06366,228.77033 395.30747,229.68565 396.35216,230.65441 C 396.81683,231.08532 395.92273,231.67221 395.79356,231.74457 C 395.23125,232.0596 393.69528,231.51767 392.89676,231.38118 C 391.82205,231.1975 389.77479,229.67139 388.61866,229.20085 C 385.66589,227.99907 386.0557,228.89905 383.26152,227.02052 C 382.40643,226.44563 381.84212,226.43296 380.70709,225.68809 z "
         style="opacity:0.91967869;fill:url(#linearGradient2843);fill-opacity:1;fill-rule:evenodd;stroke:none;stroke-width:1px;stroke-linecap:butt;stroke-linejoin:miter;stroke-opacity:1;display:inline"
         id="path2828" />
      <path
         d="M 335.42186,212.71785 C 335.42186,212.71785 315.94042,198.2922 288.8147,213.70249 C 264.11619,227.73388 239.25359,267.20226 233.34564,284.9261 C 230.19039,294.39185 225.95463,311.95721 227.63337,328.8531 C 229.09792,343.59337 238.5669,361.52751 247.13085,372.23245 C 265.51113,395.2078 284.83818,408.73616 295.05088,405.71082 C 320.98021,424.0911 339.68871,421.79357 342.9709,417.85494 C 351.05273,428.50633 383.01366,426.71686 389.90627,418.18316 C 396.71895,422.32436 430.60547,400.13109 434.21588,392.25383 C 445.38486,390.95 476.22795,357.7908 483.12056,341.37983 C 486.638,333.00497 494.64572,319.04121 494.98837,304.30131 C 495.35847,288.38066 487.83591,269.28575 480.16658,257.35568 C 465.39671,234.38032 416.82025,204.84058 410.25586,211.73318 C 377.76238,198.04546 361.02296,207.13811 361.02296,207.13811 C 361.02296,207.13811 345.26844,208.12277 335.42186,212.71785 z M 327.62343,215.59645 C 327.62343,215.59645 310.4546,209.61021 300.16901,215.2137 C 289.88342,220.81718 278.63991,230.11347 272.07552,236.67786 C 263.59363,246.61318 244.36917,272.46162 239.25359,292.47515 C 237.45672,299.50498 234.662,318.20702 239.80488,338.6157 C 243.83779,354.61963 253.56101,370.48653 265.18291,383.06368 C 277.4113,396.41997 287.83005,397.83356 287.83005,397.83356 L 299.31773,402.10041 C 299.31773,402.10041 309.17294,408.95548 317.95281,411.33507 C 326.73268,413.71466 334.4372,411.61877 334.4372,411.61877 L 346.25309,411.94699 C 346.25309,411.94699 353.40177,417.88388 367.59726,417.39155 C 381.46453,416.89922 383.6701,413.58808 385.96764,410.96233 C 392.11892,403.93229 402.05038,407.68013 402.05038,407.68013 L 431.91834,385.033 C 431.91834,385.033 439.64934,385.81678 456.14236,367.51855 C 472.78331,349.05621 474.23563,346.87037 484.10521,324.99143 C 489.21508,313.66385 488.32266,301.64503 487.87255,297.9241 C 487.48796,294.74478 486.98893,290.94446 482.79234,281.64391 C 478.42464,271.96414 475.11743,262.46094 469.56173,255.5994 C 463.53198,248.15238 455.14645,243.46572 447.67287,235.6932 C 433.31327,220.75922 417.14847,220.26689 417.14847,220.26689 L 390.5575,210.74071 L 372.51064,206.80989 L 353.1457,214.03073 L 327.62343,215.59645 z "
         style="opacity:1;fill:black;fill-rule:evenodd;stroke:none;stroke-width:0.2;stroke-linecap:butt;stroke-linejoin:miter;stroke-miterlimit:4;stroke-opacity:1;display:inline"
         id="path2776" />
      <g
         transform="translate(-21.17779,-30.1857)"
         style="opacity:1;stroke:black;stroke-opacity:1;display:inline"
         id="g3741">
        <path
           d="M 554.7926,348.62784 C 557.05675,349.56743 565.87838,353.81443 567.77569,355.94066 C 570.89393,358.80116 573.90495,361.76914 576.89768,364.75938 C 579.27984,366.79862 581.67761,368.80682 584.03689,370.87425 C 585.83024,372.31893 586.04755,375.06865 585.76711,377.18194 C 584.94447,379.32027 582.49169,375.71791 581.14752,375.55832 C 577.82289,373.5794 574.1387,372.00777 571.58064,368.98732 C 570.0027,367.50955 566.36183,363.14013 561.48466,359.48589 C 558.03092,356.89817 552.97546,354.83271 551.94909,353.68081 C 548.47522,354.24619 542.48168,379.45583 541.71211,383.78067 C 538.73709,385.42928 537.57809,380.74876 538.279,378.54581 C 538.2618,374.36191 539.41149,353.85816 544.68649,348.77874 C 547.037,347.48303 548.08781,345.32952 547.54429,342.651 C 547.71403,338.40491 547.69437,334.15593 547.63653,329.91352 C 546.87194,327.64347 547.22032,325.26532 547.21638,322.91452 C 533.58148,329.75061 531.82138,324.83052 549.47217,314.38728 C 551.13849,312.4918 553.72114,311.43289 556.23054,312.01678 C 558.94299,312.0802 561.52907,313.12817 564.00445,314.11295 C 567.23897,315.73169 570.70972,317.22001 573.1624,320.00627 C 575.60395,322.43616 577.02038,325.963 576.37081,329.41145 C 576.23964,333.35976 572.76717,335.96905 570.06631,338.36939 C 567.91585,339.77799 565.9007,341.15288 563.90783,342.77019 C 561.10171,344.64772 558.08058,346.19283 555.17005,347.87059 M 554.27058,328.56638 C 553.68853,332.75874 553.94572,336.8779 553.51248,341.09656 C 552.98801,342.46229 552.96784,345.06906 554.88697,343.10078 C 557.35007,341.59819 559.83185,340.00883 562.31441,338.62634 C 563.34039,337.04405 565.19946,336.21928 566.5321,334.90624 C 568.72434,333.22157 570.93218,330.05495 569.25128,327.29953 C 566.95417,324.09262 563.01825,322.66733 559.43728,321.38905 C 556.75454,320.65021 555.70546,319.76328 553.60777,322.17374"
           style="font-size:64px;font-style:normal;font-variant:normal;font-weight:normal;font-stretch:normal;text-align:start;line-height:125%;writing-mode:lr-tb;text-anchor:start;fill:black;fill-opacity:1;stroke:black;stroke-width:1px;stroke-linecap:butt;stroke-linejoin:miter;stroke-opacity:1;font-family:Mistral"
           id="path3711" />
        <path
           d="M 600.76666,320.04462 C 604.49429,318.77119 608.62983,318.6363 612.37809,319.86904 C 613.78125,318.87355 628.58381,322.78242 629.87051,321.63089 C 631.88398,323.11797 628.16435,323.04444 628.66491,325.14092 C 628.74966,327.84561 613.39267,327.34485 611.85684,326.98605 C 610.46719,326.42037 606.18944,327.26602 608.85512,329.13155 C 611.12244,332.30176 610.28891,336.37649 609.61001,339.91954 C 609.0461,342.25043 609.08342,344.65849 608.63943,346.99809 C 607.94614,349.56364 607.99794,352.26985 607.05767,354.78453 C 607.07867,357.18025 606.71148,359.60888 606.44654,362.014 C 606.47906,364.54901 605.41144,366.96302 605.6287,369.41907 C 605.49177,371.75915 605.25394,374.10336 605.31022,376.46198 C 605.54771,378.62946 605.97401,381.05644 603.52571,382.1166 C 600.96739,384.12458 601.54654,379.84446 601.48562,378.38526 C 600.92722,375.7044 601.02775,372.89223 600.77969,370.15967 C 600.88421,365.4611 600.8767,360.75478 601.47437,356.08365 C 601.79098,352.24873 601.76461,348.39512 602.35737,344.58371 C 602.15227,342.22498 603.14475,340.03265 602.8966,337.75756 C 603.40332,334.74848 603.97045,331.63765 603.56979,328.60155 C 602.00433,327.06637 599.66065,329.29663 597.7155,329.50195 C 595.7819,329.6511 590.7358,334.74874 589.27522,333.38157 C 589.62868,331.01202 590.22976,328.66512 590.41658,326.22613 C 591.29268,323.25957 597.15837,320.07323 599.8196,319.96853 C 600.1364,319.97519 600.45294,319.99958 600.76664,320.04463"
           style="font-size:64px;font-style:normal;font-variant:normal;font-weight:normal;font-stretch:normal;text-align:start;line-height:125%;writing-mode:lr-tb;text-anchor:start;fill:black;fill-opacity:1;stroke:black;stroke-width:1px;stroke-linecap:butt;stroke-linejoin:miter;stroke-opacity:1;font-family:Mistral"
           id="path3707" />
        <path
           d="M 631.53103,372.043 C 631.45679,369.63727 631.7712,367.22792 632.03209,364.86292 C 631.68208,361.58122 632.39503,358.28613 632.60952,355.01052 C 632.81274,352.4189 633.20145,349.8199 633.47005,347.25428 C 633.34023,345.74452 633.3534,344.13947 632.16878,343.13939 C 631.96232,340.90722 632.39725,338.61094 632.5466,336.36481 C 632.80027,333.7396 634.17856,331.42001 634.46985,328.80335 C 634.94284,326.35512 635.33723,323.33999 637.89398,322.16378 C 639.58216,322.05416 642.12274,318.9203 643.10655,321.48335 C 643.22701,324.19752 642.46751,326.8867 642.13987,329.57498 C 641.40397,336.40721 639.57202,343.06921 638.9365,349.91834 C 638.44714,354.84661 637.27435,359.77375 637.74119,364.74494 C 637.47719,367.8927 636.88085,371.02192 637.21095,374.19401 C 637.03861,376.17016 638.85537,378.51234 637.01997,380.0791 C 635.79342,381.96784 632.6836,383.23825 632.27698,380.06538 C 631.54796,378.24227 632.7614,376.30206 631.60295,374.5452 C 631.45502,374.44332 631.56765,372.73062 631.53105,372.043"
           style="font-size:64px;font-style:normal;font-variant:normal;font-weight:normal;font-stretch:normal;text-align:start;line-height:125%;writing-mode:lr-tb;text-anchor:start;fill:black;fill-opacity:1;stroke:black;stroke-width:1px;stroke-linecap:butt;stroke-linejoin:miter;stroke-opacity:1;font-family:Mistral"
           id="path3705" />
      </g>
      <g
         transform="translate(-21.17779,-30.1857)"
         style="opacity:1;fill:#f60;fill-opacity:1;stroke:#f60;stroke-opacity:1;display:inline"
         id="g3746">
        <path
           d="M 657.38416,330.8956 C 657.20855,329.50356 656.47456,328.09973 657.13389,326.72532 C 656.71475,323.69339 660.79811,321.67747 662.77952,323.75122 C 664.5051,324.64345 665.65185,318.0953 667.96491,321.23802 C 667.96027,323.94839 666.77285,326.69887 665.981,329.27141 C 664.41395,332.16625 666.21503,335.37596 666.89853,338.25748 C 669.73871,346.54485 671.51369,355.16378 674.67396,363.34731 C 675.62512,365.10956 675.87906,368.3495 677.81287,368.92237 C 678.36038,366.6638 678.38164,364.22273 679.11705,361.94874 C 679.85841,357.42295 680.81408,352.91945 680.86915,348.31221 C 680.84519,344.96661 681.46256,333.6813 681.69133,330.3583 C 681.66649,327.54688 680.94125,324.70709 681.78932,321.94961 C 682.76426,317.66701 682.76057,312.79911 685.7289,309.29409 C 687.04718,307.08039 688.46985,308.88537 687.53575,310.74135 C 687.81927,313.33147 687.02942,315.92799 687.2051,318.54973 C 686.39559,328.85236 685.90924,347.187 684.83151,357.46719 C 684.2446,361.81621 683.35938,366.10854 682.61512,370.42881 C 682.0972,372.68395 681.72137,375.13293 680.29499,376.99415 C 678.18139,378.10683 674.96168,380.26933 673.9462,376.74104 C 671.87736,372.64793 670.07142,368.3981 668.5748,364.06067 C 667.71182,359.49353 665.52974,355.33208 664.09177,350.93649 C 663.33822,349.36223 663.04897,346.66701 661.78089,345.86487 C 661.08353,348.56304 660.84112,351.36918 659.82155,353.97096 C 658.62984,359.41914 657.33803,364.85389 656.28542,370.3242 C 655.24532,372.16117 655.64842,374.39095 654.83499,376.32607 C 654.03024,378.61164 654.24593,381.78797 651.62903,382.68444 C 649.32901,382.55802 651.00773,378.24266 651.03253,376.50578 C 651.88829,372.02229 652.54581,367.51232 652.93374,362.96321 C 654.65642,354.21331 655.38255,345.30086 656.67527,336.48091 C 656.91604,334.61972 657.1523,332.75794 657.38413,330.89561"
           style="font-size:64px;font-style:normal;font-variant:normal;font-weight:normal;font-stretch:normal;text-align:start;line-height:125%;writing-mode:lr-tb;text-anchor:start;fill:#f60;fill-opacity:1;stroke:#f60;stroke-width:1px;stroke-linecap:butt;stroke-linejoin:miter;stroke-opacity:1;font-family:Mistral"
           id="path3701" />
        <path
           d="M 709.90013,375.6456 C 706.21496,379.95875 701.82302,384.05029 696.27159,385.71422 C 694.14232,385.41005 691.15891,383.6125 691.90897,381.09531 C 693.11752,377.94747 696.68413,376.93103 699.26794,375.19222 C 700.78621,374.6483 704.69134,370.72514 704.63192,374.16902 C 704.58593,375.4291 700.72275,376.54034 702.71096,377.09098 C 703.96195,375.80414 706.45069,374.40838 705.81866,372.32529 C 707.30107,370.79436 708.41099,368.59612 707.02037,366.58492 C 704.81484,361.94748 701.4845,357.96899 698.01064,354.23926 C 697.12749,351.97908 695.5175,350.19661 694.39999,348.08736 C 693.24576,344.28565 693.26275,339.90165 695.20684,336.3508 C 696.52857,331.93405 700.09273,328.66755 703.44076,325.70546 C 705.42026,324.41718 706.95314,322.51528 709.27846,321.77524 C 711.48406,320.93742 713.81843,318.18879 716.28627,319.65852 C 717.8194,321.69376 717.2697,324.65341 716.54359,326.90995 C 713.69286,329.76283 710.83242,332.71172 707.44236,334.93508 C 704.6548,336.92809 704.26395,332.35427 706.56398,331.45611 C 707.66538,331.09843 708.93273,328.00398 706.91888,329.4807 C 704.35653,332.2166 701.33943,335.0785 700.66138,338.93116 C 700.44592,344.23879 704.12733,348.51673 706.91916,352.66956 C 708.69346,355.36522 710.75784,357.88286 712.37228,360.67034 C 714.00291,363.45023 713.58347,366.76613 713.90838,369.81486"
           style="font-size:64px;font-style:normal;font-variant:normal;font-weight:normal;font-stretch:normal;text-align:start;line-height:125%;writing-mode:lr-tb;text-anchor:start;fill:#f60;fill-opacity:1;stroke:#f60;stroke-width:1px;stroke-linecap:butt;stroke-linejoin:miter;stroke-opacity:1;font-family:Mistral"
           id="path3699" />
        <path
           d="M 763.45544,360.7153 C 763.91079,361.88091 764.36613,363.04652 764.82147,364.21213 C 762.22343,366.57453 758.68667,367.50671 755.6905,369.22927 C 752.19275,369.81667 749.08662,372.11992 745.58257,372.45494 C 744.46136,372.09836 743.35698,371.8917 742.36466,372.68281 C 740.1699,372.89967 736.80848,372.72364 737.63409,369.91993 C 733.92712,369.76313 736.02478,364.94288 735.70299,362.50172 C 736.26834,359.51178 735.8955,356.25067 736.56293,353.13435 C 736.96039,349.94868 737.86797,346.8118 737.39258,343.57336 C 738.49367,338.79943 739.25333,333.9223 740.65043,329.23219 C 742.41893,326.11475 740.39709,321.32273 742.99797,319.60648 C 745.12066,318.12061 751.7437,317.8934 754.59405,318.20253 C 757.7952,318.03673 761.65344,316.69878 764.24631,319.17173 C 765.63283,321.17967 765.24758,327.79816 761.60856,325.96107 C 758.98883,324.10287 755.4454,324.67884 752.5096,325.38617 C 751.01952,326.57819 748.82952,324.93953 748.13114,327.80212 C 746.26529,331.08655 746.46646,335.04121 745.22489,338.58709 C 745.20808,340.77584 742.71483,343.98355 744.54639,345.58782 C 746.65092,343.52102 749.23378,342.12494 752.16078,341.57316 C 754.25132,341.1286 756.36803,341.15813 758.40259,341.18423 C 760.41386,340.26555 762.08316,342.85301 761.77255,344.64474 C 762.08572,346.92753 760.28389,349.18552 758.20692,347.48067 C 754.81107,347.57662 751.3024,348.1272 747.87713,348.44636 C 744.18543,348.92088 741.42677,352.04569 741.56264,355.77417 C 740.94212,358.26018 741.38516,360.71834 740.72905,363.24289 C 739.33218,367.79537 744.97155,364.63289 747.32139,365.64078 C 749.39883,365.80286 751.13336,364.51695 753.13814,364.32614 C 756.6835,364.18608 759.93296,362.43988 763.07122,360.9505 L 763.45544,360.71531 L 763.45544,360.7153 z "
           style="font-size:64px;font-style:normal;font-variant:normal;font-weight:normal;font-stretch:normal;text-align:start;line-height:125%;writing-mode:lr-tb;text-anchor:start;fill:#f60;fill-opacity:1;stroke:#f60;stroke-width:1px;stroke-linecap:butt;stroke-linejoin:miter;stroke-opacity:1;font-family:Mistral"
           id="path3695" />
        <path
           d="M 771.48407,342.98035 C 770.58454,339.99807 772.52245,336.88947 771.75215,334.12896 C 771.73733,331.35263 771.85313,328.33139 773.36058,325.90418 C 775.08053,324.01968 776.57186,320.12322 779.27653,320.22888 C 780.04168,323.22456 778.46827,326.35226 779.0493,329.41453 C 779.01864,335.70242 779.87133,342.15164 782.66808,347.83616 C 785.31606,351.5067 787.98792,346.5428 788.16641,343.87645 C 789.67447,337.61039 798.97489,316.7208 802.51103,313.20538 C 805.06467,311.25963 804.48493,316.73281 804.3785,318.30767 C 803.97334,326.47524 802.08972,334.44927 800.55123,342.45311 C 800.3771,346.53863 798.4951,350.31609 798.5089,354.42644 C 798.17325,358.77335 797.85579,363.15917 796.96493,367.41288 C 795.63616,369.53212 794.71835,373.71582 792.35567,374.16868 C 792.34984,371.9474 793.19785,369.56752 793.24596,367.23116 C 793.87339,360.09478 794.14294,352.92234 795.30421,345.84157 C 795.87306,341.32899 796.41162,336.80977 797.19712,332.32834 C 795.71121,339.43537 792.78686,344.53978 790.98888,347.69084 C 789.37263,351.5717 787.47857,355.92238 783.50213,357.88283 C 779.98154,358.69556 778.29876,354.75339 777.08653,352.18704 C 775.32144,349.91825 776.01544,355.17445 775.5099,356.23364 C 774.54568,364.16066 773.70885,372.10307 772.98849,380.05592 C 773.68805,382.63584 770.64618,386.56805 768.48822,385.85767 C 768.65448,383.59945 768.19843,381.34331 768.81441,379.06948 C 768.56278,375.75094 769.70982,372.4825 769.21886,369.17088 C 769.30323,363.61924 770.78087,358.12161 770.18004,352.55597 C 770.54576,349.35498 771.06213,346.17392 771.48408,342.98034"
           style="font-size:64px;font-style:normal;font-variant:normal;font-weight:normal;font-stretch:normal;text-align:start;line-height:125%;writing-mode:lr-tb;text-anchor:start;fill:#f60;fill-opacity:1;stroke:#f60;stroke-width:1px;stroke-linecap:butt;stroke-linejoin:miter;stroke-opacity:1;font-family:Mistral"
           id="path3693" />
        <path
           d="M 722.0582,367.44793 C 721.98396,365.0422 722.29837,362.63285 722.55926,360.26785 C 722.20925,356.98615 722.9222,353.69106 723.13669,350.41545 C 723.33991,347.82383 723.72862,345.22483 723.99722,342.65921 C 723.8674,341.14945 723.88057,339.5444 722.69595,338.54432 C 722.48949,336.31215 722.92442,334.01587 723.07377,331.76974 C 723.32744,329.14453 724.70573,326.82494 724.99702,324.20828 C 725.47001,321.76005 725.8644,318.74492 728.42115,317.56871 C 730.10933,317.45909 732.64991,314.32523 733.63372,316.88828 C 733.75418,319.60245 732.99468,322.29163 732.66704,324.97991 C 731.93114,331.81214 730.09919,338.47414 729.46367,345.32327 C 728.97431,350.25154 727.80152,355.17868 728.26836,360.14987 C 728.00436,363.29763 727.40802,366.42685 727.73812,369.59894 C 727.56578,371.57509 729.38254,373.91727 727.54714,375.48403 C 726.32059,377.37277 723.21077,378.64318 722.80415,375.47031 C 722.07513,373.6472 723.28857,371.70699 722.13012,369.95013 C 721.98219,369.84825 722.09482,368.13555 722.05822,367.44793"
           style="font-size:64px;font-style:normal;font-variant:normal;font-weight:normal;font-stretch:normal;text-align:start;line-height:125%;writing-mode:lr-tb;text-anchor:start;fill:#f60;fill-opacity:1;stroke:#f60;stroke-width:1px;stroke-linecap:butt;stroke-linejoin:miter;stroke-opacity:1;font-family:Mistral"
           id="path3724" />
        <path
           d="M 836.32013,361.04352 C 836.77548,362.20913 837.23082,363.37474 837.68616,364.54035 C 835.08812,366.90275 831.55136,367.83493 828.55519,369.55749 C 825.05744,370.14489 821.95131,372.44814 818.44726,372.78316 C 817.32605,372.42658 816.22167,372.21992 815.22935,373.01103 C 813.03459,373.22789 809.67317,373.05186 810.49878,370.24815 C 806.79181,370.09135 808.88947,365.2711 808.56768,362.82994 C 809.13303,359.84 808.76019,356.57889 809.42762,353.46257 C 809.82508,350.2769 810.73266,347.14002 810.25727,343.90158 C 811.35836,339.12765 812.11802,334.25052 813.51512,329.56041 C 815.28362,326.44297 813.26178,321.65095 815.86266,319.9347 C 817.98535,318.44883 824.60839,318.22162 827.45874,318.53075 C 830.65989,318.36495 834.51813,317.027 837.111,319.49995 C 838.49752,321.50789 838.11227,328.12638 834.47325,326.28929 C 831.85352,324.43109 828.31009,325.00706 825.37429,325.71439 C 823.88421,326.90641 821.69421,325.26775 820.99583,328.13034 C 819.12998,331.41477 819.33115,335.36943 818.08958,338.91531 C 818.07277,341.10406 815.57952,344.31177 817.41108,345.91604 C 819.51561,343.84924 822.09847,342.45316 825.02547,341.90138 C 827.11601,341.45682 829.23272,341.48635 831.26728,341.51245 C 833.27855,340.59377 834.94785,343.18123 834.63724,344.97296 C 834.95041,347.25575 833.14858,349.51374 831.07161,347.80889 C 827.67576,347.90484 824.16709,348.45542 820.74182,348.77458 C 817.05012,349.2491 814.29146,352.37391 814.42733,356.10239 C 813.80681,358.5884 814.24985,361.04656 813.59374,363.57111 C 812.19687,368.12359 817.83624,364.96111 820.18608,365.969 C 822.26352,366.13108 823.99805,364.84517 826.00283,364.65436 C 829.54819,364.5143 832.79765,362.7681 835.93591,361.27872 L 836.32013,361.04353 L 836.32013,361.04352 z "
           style="font-size:64px;font-style:normal;font-variant:normal;font-weight:normal;font-stretch:normal;text-align:start;line-height:125%;writing-mode:lr-tb;text-anchor:start;fill:#f60;fill-opacity:1;stroke:#f60;stroke-width:1px;stroke-linecap:butt;stroke-linejoin:miter;stroke-opacity:1;font-family:Mistral"
           id="path3729" />
      </g>
      <path
         d="M 90.570234,503.8484 C 90.570234,503.8484 73.366013,489.38095 63.656244,495.3147 C 57.748296,498.92512 61.686928,504.50484 69.564192,505.81772 C 74.784562,506.68778 89.585574,503.52018 90.570234,503.8484 z "
         style="opacity:1;fill:black;fill-rule:evenodd;stroke:none;stroke-width:1px;stroke-linecap:butt;stroke-linejoin:miter;stroke-opacity:1;display:inline"
         id="path3734" />
      <path
         d="M 159.16807,490.0632 C 157.9646,490.0632 156.76113,490.0632 155.55766,490.0632 C 149.76821,485.21754 143.53296,480.61471 136.40299,477.96179 C 130.83951,476.17109 124.47917,475.19408 118.96419,477.64991 C 111.99755,481.38987 109.96464,490.33185 102.82731,493.89303 C 98.504774,496.20398 92.419234,496.89063 88.682868,493.11552 C 83.96364,488.4393 84.726445,480.22746 89.111634,475.58806 C 94.780484,469.44281 102.94667,466.09237 111.05912,464.68317 C 122.03513,463.01495 133.50034,466.3925 142.0531,473.40798 C 146.1728,476.73395 149.68916,480.71544 153.56257,484.31192 C 155.45286,486.20761 157.31827,488.12803 159.16807,490.0632 z "
         style="opacity:1;fill:black;fill-rule:evenodd;stroke:none;stroke-width:1px;stroke-linecap:butt;stroke-linejoin:miter;stroke-opacity:1;display:inline"
         id="path3736" />
      <path
         d="M 141.44422,458.88235 L 169.67109,494.65826 C 181.81521,482.84237 230.80095,471.06634 244.17688,469.71359 C 256.90286,468.42657 267.74194,470.39172 272.73196,471.68291 C 277.77901,472.98885 351.66871,497.77635 396.14243,498.5969 C 440.61615,499.41745 451.20123,484.64757 450.62684,474.9651 C 449.97425,463.96432 445.70355,456.58482 425.02573,447.06646 C 404.31569,437.53327 411.24052,431.64015 418.46135,425.40398 C 428.12679,417.05656 464.08384,396.52068 498.21865,396.19246 C 513.69595,395.80807 773.26645,397.83355 773.26645,397.83355 L 772.93824,398.49 L 773.11297,391.37776 C 773.11297,391.37776 730.29773,391.84159 696.81936,391.84159 C 663.34099,391.84159 594.38691,390.28451 554.01594,388.97163 C 513.64496,387.65876 464.74028,384.70478 421.74354,412.27521 C 378.74681,439.84563 404.0197,447.06646 427.65149,460.85167 C 451.28328,474.63688 436.18519,493.6736 390.5627,488.75031 C 356.81526,485.1085 309.45731,469.42102 262.66574,458.21635 C 246.20073,454.27366 229.61475,451.84152 213.9807,449.36399 C 153.91656,439.84563 141.44422,458.88235 141.44422,458.88235 z "
         style="opacity:1;fill:black;fill-rule:evenodd;stroke:none;stroke-width:1px;stroke-linecap:butt;stroke-linejoin:miter;stroke-opacity:1;display:inline"
         id="path3739" />
      <path
         d="M 303.17485,246.33121 C 303.17485,246.33121 271.56397,288.91809 270.24685,315.26049 C 268.92973,341.60289 281.66189,395.6048 288.68653,399.9952 C 295.71117,404.3856 300.54061,404.3856 306.24813,407.89792 C 311.95565,411.41024 292.19885,398.67808 283.85709,371.45761 C 275.51533,344.23713 268.92973,320.96801 279.90573,294.62561 C 290.88173,268.28321 303.61389,246.33121 303.17485,246.33121 z "
         style="opacity:1;fill:black;fill-rule:evenodd;stroke:none;stroke-width:1px;stroke-linecap:butt;stroke-linejoin:miter;stroke-opacity:0.94881891;display:inline"
         id="path4796" />
      <path
         d="M 319.17644,376.50657 C 319.46163,379.01948 320.29007,381.4925 320.87299,383.96781 C 321.29291,386.27539 322.09377,388.50647 322.94226,390.6931 C 325.36165,393.00169 327.76226,397.93006 329.9367,401.57042 C 330.85148,402.07329 334.92365,408.67994 330.11013,405.36007 C 329.10881,404.66946 332.60725,405.98031 333.42899,406.87716 C 334.41635,409.02076 335.24104,411.26891 337.06408,412.50202 C 338.96614,413.61092 338.06326,413.04526 339.77935,414.18834 L 338.19032,416.47734 C 335.13603,414.63783 339.55145,416.9391 335.98373,415.14838 C 333.13661,413.5898 332.23588,410.78541 330.89928,407.99827 C 333.46616,406.50941 329.1068,406.92079 327.887,402.78037 C 326.52092,400.43705 322.05179,393.91461 322.18015,393.56733 C 319.50165,391.22914 319.07049,388.09218 318.18519,384.57636 C 317.59843,381.86498 315.32663,369.8609 314.71303,367.16699 L 319.17644,376.50657 z "
         style="opacity:1;fill:black;fill-opacity:1;stroke:none;stroke-width:0.2;stroke-linecap:round;stroke-miterlimit:4;stroke-dasharray:none;stroke-opacity:0.94881891;display:inline"
         id="path4798" />
      <path
         d="M 351.6289,416.47916 C 344.20513,411.45016 331.03393,387.02357 326.72336,371.21813 C 322.41278,355.41269 320.4186,342.02669 323.77126,322.86858 C 325.29702,314.14996 325.55079,300.50166 326.88012,290.8514 C 328.47184,279.29638 331.00635,272.4247 331.00635,272.4247 C 331.00635,272.4247 327.13815,278.67897 324.79853,279.74718 C 323.84063,283.5788 319.0485,321.17918 318.05141,328.44185 C 317.20203,334.62859 315.94692,347.98892 317.38378,358.76536 C 318.82064,369.5418 321.69435,382.47352 324.08912,387.98147 C 326.48388,393.48943 337.26031,411.21068 338.93665,413.12649 C 340.61298,415.0423 351.14994,416.95811 351.6289,416.47916 z "
         style="opacity:1;fill:black;fill-rule:evenodd;stroke:none;stroke-width:1px;stroke-linecap:butt;stroke-linejoin:miter;stroke-opacity:1;display:inline"
         id="path4803" />
      <path
         d="M 385.21154,258.62042 C 385.21154,258.62042 382.71057,271.3216 384.31622,279.62622 C 385.92188,287.93083 392.23723,301.12052 395.9443,306.9826 C 399.65138,312.84468 402.20414,324.56884 402.20414,324.56884 L 402.04135,308.93663 C 402.04135,308.93663 387.83093,286.46531 387.65333,279.13771 C 387.47575,271.81011 384.09794,268.39056 386.91338,266.43653 C 389.72884,264.4825 384.92297,260.08594 385.21154,258.62042 z "
         style="opacity:1;fill:black;fill-rule:evenodd;stroke:none;stroke-width:1px;stroke-linecap:butt;stroke-linejoin:miter;stroke-opacity:1;display:inline"
         id="path4805" />
      <path
         d="M 385.00126,414.4541 C 393.30588,408.59202 401.12199,384.65518 402.099,370.48849 C 403.07602,356.32179 403.56452,343.62061 403.56452,343.62061 C 403.56452,343.62061 406.00706,364.6264 404.05303,380.25862 C 402.099,395.89084 397.21394,412.50007 397.21394,412.50007 L 385.00126,414.4541 z "
         style="opacity:1;fill:black;fill-rule:evenodd;stroke:none;stroke-width:1px;stroke-linecap:butt;stroke-linejoin:miter;stroke-opacity:1;display:inline"
         id="path4807" />
      <path
         d="M 414.1217,234.35786 C 414.1217,234.35786 427.35893,249.33954 432.46823,259.54063 C 437.57754,269.74173 439.28751,279.66095 439.20374,284.43593 C 441.47484,295.754 431.28206,275.82735 431.28206,275.82735 C 431.28206,275.82735 431.64291,267.2203 430.19782,263.48712 C 428.75272,259.75394 421.86296,247.26997 418.74069,243.15604 C 415.61843,239.04212 412.96066,235.85556 414.1217,234.35786 z "
         style="opacity:1;fill:black;fill-rule:evenodd;stroke:none;stroke-width:0.90841693px;stroke-linecap:butt;stroke-linejoin:miter;stroke-opacity:1;display:inline"
         id="path4809" />
      <path
         d="M 437.23296,295.16031 C 437.23296,295.16031 440.36062,306.00433 439.42232,307.97597 C 438.48403,309.94761 440.36062,315.36962 437.85849,316.35545 C 435.35637,317.34126 434.73084,318.32708 434.73084,312.90507 C 434.73084,307.48306 437.85849,295.65322 437.23296,295.16031 z "
         style="opacity:1;fill:black;fill-rule:evenodd;stroke:none;stroke-width:0.80375272px;stroke-linecap:butt;stroke-linejoin:miter;stroke-opacity:1;display:inline"
         id="path4811" />
      <path
         d="M 428.96688,391.98279 C 436.29448,369.02297 457.78878,346.55165 462.18535,317.72975 C 466.58191,288.90784 451.43819,260.08594 444.11059,248.36178 C 436.78299,236.63762 443.13358,243.47671 448.50715,250.80431 C 453.88073,258.13192 460.65945,273.89042 462.18534,283.04576 C 464.13937,294.76993 474.39801,316.26423 454.36923,354.36776 C 433.98254,393.1522 430.92091,392.47129 428.96688,391.98279 z "
         style="opacity:1;fill:black;fill-rule:evenodd;stroke:none;stroke-width:1px;stroke-linecap:butt;stroke-linejoin:miter;stroke-opacity:1;display:inline"
         id="path4813" />
      <path
         d="M 435.56172,389.8105 C 434.76355,389.40462 438.6367,384.4234 440.38237,382.63586 C 441.94232,380.11105 445.24405,375.52972 446.12091,373.96964 C 446.99778,372.40956 449.45407,369.43033 450.37912,366.67296 C 454.33017,362.26458 457.52124,357.22611 460.41844,352.06963 C 462.97198,357.26947 459.64616,352.34826 460.92711,348.92272 C 461.68516,347.26872 463.26842,345.82413 463.22424,344.144 L 465.17828,341.07082 C 465.19954,343.10788 464.32531,347.81598 463.69056,349.77116 C 461.89337,357.09197 458.84168,348.17122 462.915,353.84767 C 459.05838,358.17262 456.83103,363.66532 453.29967,368.23202 C 452.01556,370.85345 450.66996,372.19238 448.89024,374.54652 C 448.74198,377.33667 450.01482,376.29964 442.40417,384.47622 C 440.02029,387.32852 438.85743,391.32073 435.56172,393.17805 L 435.56172,389.8105 z "
         style="opacity:1;fill:black;fill-opacity:1;stroke:none;stroke-width:0.2;stroke-linecap:round;stroke-miterlimit:4;stroke-dasharray:none;stroke-opacity:0.94881891;display:inline"
         id="path4815" />
      <path
         d="M 400.25156,214.60595 C 414.56925,223.66776 420.30921,224.17848 425.68056,230.99092 C 428.23978,233.0348 442.0744,241.4161 439.63187,237.99656 C 437.18934,234.57701 428.59115,225.37388 423.82202,222.25775 C 414.34054,216.06259 407.497,214.39279 407.497,214.39279 L 396.23692,210.74675 L 400.25156,214.60595 z "
         style="opacity:1;fill:black;fill-opacity:1;fill-rule:evenodd;stroke:none;stroke-width:1px;stroke-linecap:butt;stroke-linejoin:miter;stroke-opacity:1;display:inline"
         id="path4817" />
      <path
         d="M 319.42444,194.56723 L 323.05612,192.77846 L 324.35881,189.63288 C 324.35881,189.63288 329.90996,201.66039 336.69471,207.51994 C 343.47946,213.37948 347.79702,217.69706 347.79702,217.69706 L 338.2367,218.93064 L 319.42444,194.56723 z "
         style="opacity:1;fill:black;fill-rule:evenodd;stroke:none;stroke-width:1px;stroke-linecap:butt;stroke-linejoin:miter;stroke-opacity:1;display:inline"
         id="path4821" />
      <path
         d="M 339.16189,214.92147 C 339.16189,214.92147 346.01688,201.83159 347.23313,197.62637 C 348.2649,194.05899 352.90052,182.21941 352.90052,182.21941 L 354.5647,186.45358 L 357.68309,187.35872 C 357.68309,187.35872 355.45795,190.69794 353.91596,193.9361 C 352.37397,197.17428 350.2642,202.27717 350.2642,202.27717 L 347.71724,209.83992 C 346.28919,213.99327 353.94963,211.24438 355.81536,212.7627 L 338.2367,216.46346 L 339.16189,214.92147 z "
         style="opacity:1;fill:black;fill-rule:evenodd;stroke:none;stroke-width:1px;stroke-linecap:butt;stroke-linejoin:miter;stroke-opacity:1;display:inline"
         id="path4823" />
      <path
         d="M 323.17512,218.30302 C 323.17512,218.30302 315.9352,218.63209 309.35345,220.27754 C 302.7717,221.92298 295.20269,227.84655 295.20269,227.84655 C 295.20269,227.84655 306.5562,222.59761 313.36831,223.1077 C 317.81099,223.35452 312.97341,228.83382 312.97341,228.83382 C 312.97341,228.83382 315.27702,223.8975 312.97341,228.83382 C 310.6698,233.77013 307.04984,237.39009 307.04984,237.39009 L 309.23079,236.54502 L 317.58064,230.47925 C 317.58064,230.47925 321.55808,230.89287 325.28128,229.03127 C 330.02014,226.66184 330.41505,233.77013 330.41505,240.02279 C 330.41505,246.27545 332.38957,249.89541 332.38957,249.89541 C 332.38957,249.89541 334.03501,249.23724 333.37684,244.63001 C 332.71866,240.02279 333.04775,241.66823 334.03501,237.71918 C 335.02227,233.77013 336.9968,231.46652 339.30041,231.7956 C 341.60402,232.12469 345.02653,233.96758 345.68471,236.60028 C 346.34288,239.23298 351.47665,249.23724 350.81847,243.97184 C 350.1603,238.70644 346.27707,225.47712 346.27707,225.47712 C 346.27707,225.47712 352.38929,228.20119 357.2911,229.27663 C 362.59147,230.43951 365.53895,229.23026 369.64228,230.93998 C 377.54038,234.23085 380.69962,239.75952 380.69962,239.75952 L 382.34506,237.12682 L 379.71236,231.86143 C 379.71236,231.86143 376.88221,228.17564 373.59133,227.18838 C 370.30046,226.20112 364.11361,221.59389 364.11361,221.59389 C 364.11361,221.59389 376.4873,218.30302 382.08179,219.29028 C 384.10853,219.64794 387.57735,217.6513 390.35295,219.22807 C 395.87676,222.36608 401.49795,222.91024 401.49795,222.91024 L 389.32171,215.01214 C 389.32171,215.01214 386.35992,213.95906 377.80365,214.28814 C 369.24737,214.61723 364.31106,214.02488 364.31106,214.02488 L 369.07593,209.11199 L 377.14547,208.10129 L 371.2219,206.12678 L 319.6868,214.48559 L 326.13691,214.68304 L 309.81417,214.55142 L 323.17512,218.30302 z "
         style="opacity:1;fill:black;fill-rule:evenodd;stroke:none;stroke-width:1px;stroke-linecap:butt;stroke-linejoin:miter;stroke-opacity:1;display:inline"
         id="path4825" />
      <path
         d="M 82.214883,500.39638 C 82.214883,500.39638 70.979636,490.74498 64.256058,495.64878 C 60.165069,498.63255 62.214493,500.93889 67.669144,502.02388 C 71.284015,502.74292 81.53305,500.12515 82.214883,500.39638 z "
         style="opacity:1;fill:url(#radialGradient2977);fill-opacity:1;fill-rule:evenodd;stroke:none;stroke-width:0.57786047px;stroke-linecap:butt;stroke-linejoin:miter;stroke-opacity:1;display:inline"
         id="path2969" />
      <path
         d="M 142.76362,478.58645 C 141.92362,478.58645 141.08361,478.58645 140.2436,478.58645 C 136.20263,476.23269 131.8505,473.99687 126.87386,472.70823 C 122.99061,471.83842 120.06289,473.37945 116.2135,474.57237 C 111.35086,476.38903 107.91628,481.74038 102.93451,483.47021 C 99.917424,484.59275 92.666694,488.84004 90.058744,487.0063 C 86.76477,484.73484 86.194481,477.7406 93.865034,471.5552 C 97.821824,468.57017 103.52172,466.94271 109.18412,466.25819 C 116.84525,465.44786 124.84784,467.08849 130.81757,470.49625 C 133.69307,472.11181 136.14746,474.0458 138.85105,475.79279 C 140.17045,476.71361 141.47249,477.64644 142.76362,478.58645 z "
         style="opacity:1;fill:url(#radialGradient3010);fill-opacity:1;fill-rule:evenodd;stroke:none;stroke-width:0.58227599px;stroke-linecap:butt;stroke-linejoin:miter;stroke-opacity:1;display:inline"
         id="path2981" />
      <path
         d="M 839.76582,325.33251 C 838.7409,326.38495 839.68876,328.19191 839.70018,329.5004 C 840.02197,331.3496 841.47134,333.59768 840.36748,335.3639 C 839.64981,336.27761 838.36585,334.91645 838.05029,336.21584 C 837.31462,337.37535 835.46225,339.00727 836.12302,340.42881 C 836.88936,340.79145 837.85904,341.14454 838.55155,341.38053 C 839.60773,339.0773 841.44763,337.22036 842.43502,334.92632 C 841.63974,331.82685 844.33848,328.63148 843.13512,325.62787 C 842.06224,325.24783 840.85647,325.63263 839.76582,325.33251 z M 868.85352,328.62526 C 864.33761,330.59754 860.92421,334.23546 857.68924,337.88448 C 851.54053,344.3784 844.77998,350.44803 836.92159,354.79217 C 835.09454,356.03882 833.262,358.48784 830.85025,358.00833 C 828.83828,356.69408 830.53981,354.21667 831.34269,352.706 C 833.2283,349.43169 835.25797,346.22017 837.33728,343.07613 C 834.49995,343.32977 831.87334,344.90143 830.68616,347.51751 C 828.46139,351.29308 827.25358,355.60039 825.57749,359.61642 C 825.20571,366.35522 817.82945,370.1505 814.11753,375.23487 C 811.79047,376.86512 811.68469,376.44767 809.19687,377.84479 C 798.79564,382.28185 788.59514,387.22238 777.686,390.2343 C 774.21457,391.41009 770.71225,392.83589 766.39699,392.79258 C 766.67898,394.96129 773.30115,395.45611 772.71857,396.8977 C 772.29006,397.99349 774.23224,397.39149 774.81893,397.565 C 783.25803,399.45999 792.87963,400.92269 799.1851,400.28674 C 812.17353,400.14929 819.62761,398.98943 832.61149,398.61518 C 835.87219,398.6238 838.26651,401.29466 841.25357,402.2908 C 846.78515,404.78593 852.6793,406.77821 858.65806,407.82611 C 860.0868,407.44699 861.90544,406.73451 863.13222,407.8808 C 866.15935,407.69346 867.77313,410.82572 868.29559,413.37236 C 868.97688,415.32443 870.32058,417.24447 872.39786,417.8356 C 874.02771,424.16237 879.35476,428.62831 881.92605,434.52905 C 883.09612,436.68375 886.33759,438.84327 888.32555,436.38874 C 889.06848,435.39615 887.18464,434.48898 886.73936,433.73048 C 883.97166,431.29281 880.78899,428.88636 879.8257,425.11028 C 877.77008,421.67753 875.70074,418.28459 873.60119,414.87105 C 871.95606,412.36365 869.96971,410.10191 867.79242,408.04489 C 874.60029,406.60192 880.59463,410.9801 886.94719,412.28936 C 885.81503,411.44792 886.455,409.77659 887.341,409.18259 C 885.73367,408.86541 883.23138,406.94232 884.85779,405.24442 C 889.47829,403.14242 894.86035,403.81225 899.82198,403.08731 C 910.01818,402.48948 920.1986,401.437 930.03119,398.62591 C 931.75082,398.09004 934.05162,398.0495 935.496,397.30246 C 934.71831,395.98449 929.4254,396.24095 928.38275,397.19326 C 916.67135,401.44418 909.02808,400.77845 896.50932,401.42583 C 893.33103,401.29785 888.65541,402.34501 885.78762,403.8223 C 883.81634,404.51753 881.32587,406.3599 879.31153,405.08033 C 877.90096,403.16689 880.53008,401.5853 881.78382,400.52957 C 882.4754,399.71668 882.91885,398.73972 883.63259,397.94788 C 880.07816,400.00189 877.53498,403.9681 873.28393,404.62088 C 867.87118,405.67072 862.34099,403.49884 856.95153,404.51148 C 853.67777,403.63903 849.65594,403.30931 847.41242,400.52957 C 846.57745,398.26861 849.58905,397.2731 851.3287,397.43373 C 854.24813,396.76834 856.82526,394.90989 859.88586,394.5792 C 866.55433,393.10349 873.54897,394.07053 880.20855,392.5876 C 882.48982,392.43287 885.23285,392.19832 886.47682,389.96216 C 887.50501,388.87661 888.86058,388.12609 890.10868,387.29296 C 889.93855,388.61939 889.77585,389.93522 889.16786,391.12173 C 890.95253,390.42792 892.8718,389.966 894.74696,390.14813 C 899.96204,387.38607 905.76713,385.75827 911.42944,384.12055 C 912.56717,385.14467 912.6634,383.05194 912.24991,382.42495 C 912.13485,381.40196 911.38611,379.74029 910.1058,380.87156 C 903.55221,383.0338 897.07394,385.93698 890.20712,386.96478 C 886.32751,386.79389 882.80441,389.52833 878.93959,389.14171 C 877.14228,388.17537 878.3496,385.9647 879.48655,385.02851 C 882.3137,381.78524 887.20512,380.57206 889.02567,376.47395 C 889.26213,375.07646 887.52395,373.22969 886.34555,374.58144 C 882.29539,377.89971 879.64454,382.89965 874.62949,385.02851 C 871.76688,386.25137 868.9542,387.75006 866.63281,389.75431 C 862.81979,391.422 858.15584,390.26345 854.78554,393.06893 C 850.12684,395.4536 844.59494,395.14111 839.48139,395.21304 C 837.02427,395.14711 834.58966,394.57499 832.48022,393.27678 C 839.74828,387.90175 847.60902,382.43332 856.83117,381.51698 C 865.8171,379.2024 872.31076,371.07228 881.66739,369.76399 C 885.85297,369.0652 890.21996,368.03201 893.28683,364.94937 C 898.22878,362.67766 902.73513,359.8153 907.43016,357.15812 C 911.67904,355.18044 915.73314,352.76636 918.88006,349.2852 C 921.36163,346.73358 924.7431,344.4514 928.18852,344.11537 C 928.0522,342.64739 926.30485,340.95021 924.88484,341.80716 C 925.96477,342.85075 925.6417,345.19624 923.77994,344.87018 C 922.04691,344.91627 920.44865,343.14858 918.82444,343.61215 C 918.94154,345.98834 916.44411,347.06677 915.19258,348.72084 C 910.18705,353.58187 903.83498,356.75624 897.43801,359.32105 C 891.16743,363.47862 884.06326,366.37663 876.56573,367.33959 C 871.52254,368.94763 867.54062,372.54336 862.94627,375.04089 C 864.60811,369.03172 870.19299,364.73132 870.92103,358.45685 C 870.41152,356.2366 872.02872,354.4855 873.64495,353.23879 C 880.21465,346.31986 887.44137,338.5528 897.37241,337.147 C 900.46038,336.71308 905.0242,336.29569 905.88318,332.63999 C 905.7915,331.18803 903.53502,331.6961 902.55772,331.57572 C 896.56384,331.61639 890.98103,334.56826 886.76121,338.70039 C 883.25939,341.88339 880.52637,345.8873 876.34695,348.30514 C 872.55977,350.59223 871.2747,355.01229 869.08323,358.63188 C 866.97114,362.77419 864.22612,366.5557 861.5122,370.25744 C 860.9394,371.78356 859.19128,374.13649 857.41098,372.89678 C 855.97322,371.06479 858.14557,369.12255 858.40645,367.25209 C 859.96532,363.1835 862.74138,359.3256 863.75578,355.19692 C 863.15519,354.75137 862.71586,353.79388 862.56338,355.09847 C 861.56144,358.93555 860.45628,363.84133 856.13106,365.25018 C 849.58163,367.92502 842.2563,365.41009 835.51041,367.2302 C 833.58075,367.53715 831.32957,365.53813 832.57867,363.59834 C 834.89796,359.15862 839.19961,356.2559 842.68336,352.77558 C 849.46492,347.62413 856.30682,342.50815 861.95077,336.11871 C 864.37024,333.54575 866.68336,330.9116 869.2145,328.45022 L 868.89952,328.60295 L 868.85352,328.62526 z M 867.1579,343.90752 C 865.36052,344.78436 865.2393,347.3054 864.78408,349.02713 C 864.66758,349.67103 864.55073,351.89762 864.71844,351.41191 C 864.93962,348.76828 866.96446,346.4211 867.1579,343.90752 z M 846.53727,369.49465 C 849.34964,370.01631 853.16151,368.72261 855.17935,371.33245 C 856.25029,373.91977 853.12293,375.36937 852.10538,377.27252 C 849.73993,380.46692 845.63149,383.48244 841.4833,382.28274 C 840.12685,381.96778 839.7865,380.29165 838.80316,379.78857 C 835.08979,378.72844 832.48777,375.1494 828.47641,374.74553 C 826.8019,374.4779 825.75449,372.2863 827.49187,371.33245 C 831.40499,369.49441 835.88856,371.18408 840.06033,370.62985 C 842.26562,370.5774 844.43198,370.02811 846.53727,369.49465 z M 823.7725,373.6516 C 823.37004,375.17121 824.73582,375.99206 826.00412,375.82852 C 829.48562,375.93731 833.73607,376.06745 835.89329,379.21972 C 838.00562,379.43258 840.92857,381.09559 839.94084,383.61734 C 837.30772,387.96157 835.22289,384.56389 831.39971,387.56262 C 826.73298,390.45853 820.35473,392.48711 815.02294,392.18055 C 806.28813,392.20446 797.76762,394.571 789.05312,393.95425 C 786.28779,394.02027 780.21326,396.44202 777.77256,394.6989 C 776.63768,392.91692 782.43037,394.58075 783.8647,394.36346 C 794.54789,389.88137 799.51421,389.70763 812.20141,381.3904 C 816.48268,380.32445 820.18564,374.84355 823.64123,372.54672 C 823.68498,372.91502 823.72874,373.2833 823.7725,373.6516 z M 894.736,392.57666 C 893.34417,394.07685 890.96909,393.59235 889.32105,394.73172 C 887.85661,395.34358 886.47948,396.12343 885.13126,396.9524 C 885.8967,396.67109 886.60392,397.49504 887.15502,396.58046 C 889.59455,394.92859 893.22326,395.18837 895.34861,393.32054 C 895.21576,393.02744 894.97156,392.73195 894.736,392.57666 z M 907.8851,409.29198 C 903.13602,409.41521 898.46011,410.96344 894.80164,414.08342 C 894.1644,411.25333 890.54664,411.66713 888.76313,412.45345 C 890.0729,412.6248 893.07809,411.9846 890.85255,413.78805 C 890.25193,414.27448 889.57424,414.71067 890.77278,415.03523 C 893.47258,416.46414 897.01632,418.37621 896.85824,421.91598 C 897.84978,424.42277 900.04965,426.35459 901.97785,428.14047 C 902.53119,428.66338 904.17499,429.2601 904.43919,428.49053 C 902.48929,427.31957 899.48031,426.751 898.95859,424.13667 C 897.69775,422.67985 897.57845,419.59835 899.94313,419.24679 C 905.78831,418.89103 910.9856,422.34245 916.78671,422.56349 C 923.81751,423.47216 929.40938,428.34305 935.26983,431.89896 C 939.73563,434.79002 944.73889,436.68894 948.8971,440.04413 C 951.23024,441.58303 954.04038,443.76445 956.43391,444.35258 C 956.05469,443.01722 956.06757,441.57389 955.77754,440.27221 C 949.31048,434.91257 941.202,431.99301 934.09153,427.52714 C 927.71244,423.96969 921.69657,419.16114 914.18616,418.38257 C 909.02618,417.39453 903.29081,417.41442 898.75073,414.54287 C 897.59406,413.5857 898.63976,412.12551 899.8009,411.81897 C 903.48685,409.67129 908.08225,411.72246 911.84514,410.10149 C 912.44486,409.52247 911.77986,409.16873 911.07938,409.39043 C 910.01755,409.30153 908.95064,409.22847 907.8851,409.29198 z "
         style="opacity:1;fill:black;fill-opacity:1;stroke:black;stroke-width:0.2038676;stroke-linecap:round;stroke-miterlimit:4;stroke-opacity:0.10588235;display:inline"
         id="path3660" />
      <path
         d="M 779.07327,390.14888 C 779.35125,392.81438 776.88016,393.61043 777.47466,396.01891 C 776.83311,398.39337 771.88575,397.27167 772.74228,398.69088 C 775.11413,398.24671 777.65863,399.09761 777.92224,396.19707 C 780.79225,393.43226 781.66553,400.36956 784.26645,397.24813 C 787.35831,396.04211 792.69255,393.94962 786.30433,394.96921 C 781.7311,395.48349 783.21922,388.79734 787.09241,390.15113 C 789.52609,392.15202 787.32521,387.81633 789.96133,387.89159 C 786.97219,386.16207 793.29716,382.35659 788.2163,383.81284 C 786.94726,382.66825 786.92946,387.01788 785.25325,387.33313 C 782.66779,388.49001 782.51464,393.58283 779.28485,389.71163 C 779.22568,389.88992 778.62714,389.78504 779.07327,390.14888 z M 797.44775,381.49135 C 797.45919,387.25676 796.1483,382.12121 789.92152,386.70866 C 793.31072,386.32682 791.52105,389.17397 793.48962,388.76359 C 794.65183,388.52131 793.17457,389.78876 797.05348,389.29271 C 798.5562,387.99656 802.50283,387.83699 803.92431,387.52966 C 800.43049,387.61319 797.25194,385.21016 801.09994,385.03801 C 804.57125,385.19071 807.32178,388.83607 810.36647,385.67797 C 813.68393,385.18387 804.07276,384.2939 808.5036,381.66424 C 810.46336,378.96302 814.92501,382.80937 812.58793,384.76722 C 816.13092,383.60129 819.02414,381.4417 821.95055,379.33898 C 818.3987,379.59995 814.00824,376.87048 817.17302,373.82837 C 817.65838,371.28904 820.95562,372.93699 820.41377,370.00188 C 822.4243,369.53355 821.81463,365.37802 825.06202,367.22223 C 827.85831,367.40838 829.43652,368.13388 830.98267,369.6227 C 832.57406,373.15886 837.56736,371.84006 838.5171,370.52511 C 835.37195,372.29179 830.90923,366.81278 835.53901,366.04062 C 835.23362,360.93585 834.41717,362.23473 831.08027,361.63438 C 827.73853,361.37933 827.22578,366.7321 823.75753,364.5778 C 820.65441,366.33396 818.18777,370.74874 814.00569,369.26417 C 813.69639,370.88881 813.28224,373.68597 812.659,374.15664 C 817.45818,377.45472 809.55148,383.57249 807.12989,379.11839 C 806.858,376.54339 813.48747,376.73603 810.23382,374.87308 C 807.92127,376.23692 804.94117,378.43092 802.97684,379.63853 C 803.7498,382.86036 799.71702,381.95363 798.01796,380.31756 L 797.35288,380.8012 L 797.44775,381.49135 z M 823.94974,364.54523 C 823.98291,364.44577 823.87788,364.53845 823.94974,364.54523 z M 813.21958,379.28466 C 815.618,375.90213 820.42268,382.64899 815.81301,383.18402 C 813.54862,383.8599 811.95099,380.97049 813.21958,379.28466 z M 821.75526,375.20075 C 823.84814,378.66085 827.6965,377.51543 829.351,375.42719 C 829.34929,373.80455 831.36043,372.72061 828.68494,373.30964 C 826.33399,373.21632 824.59633,370.27597 824.05829,373.62144 C 823.24543,374.44696 821.98416,373.59647 821.75526,375.20075 z M 838.71697,358.98832 C 839.04539,359.54574 838.77094,358.53227 838.71697,358.98832 z M 838.15799,362.04517 C 833.31681,366.8238 840.15354,366.84165 843.95564,368.78008 C 844.95052,367.79936 845.47681,365.65188 847.31358,365.12679 C 845.95962,361.21527 851.12928,361.73069 851.84648,363.09326 C 852.85152,360.67788 854.68668,358.57275 857.42788,357.90971 C 857.90096,355.98814 862.29309,353.10572 859.36994,354.84703 C 858.13211,357.37707 854.56555,359.32326 852.34082,355.89126 C 855.1382,354.60424 851.78518,351.51605 850.33068,353.6205 C 848.52909,353.86733 846.93371,355.34581 845.02686,354.21476 C 841.7352,355.3125 845.15072,356.9988 843.97156,359.27121 C 843.07206,361.3771 840.6378,365.00622 838.35155,361.6313 L 838.15799,362.04517 z M 845.10717,356.11661 C 849.48472,352.12671 851.07381,362.69167 845.56486,359.20943 C 844.50501,358.39338 844.38464,357.01644 845.10717,356.11661 z "
         style="opacity:1;fill:#d45500;fill-opacity:1;display:inline"
         id="path3568" />
      <path
         d="M 861.74649,377.61599 C 863.88436,374.93366 871.13687,374.98247 871.24614,372.12701 C 867.90126,373.44863 872.62149,369.74892 872.42685,368.08394 C 874.16186,367.40037 876.94595,368.48238 876.43066,365.29391 C 876.76108,360.96866 878.13186,368.93179 879.77917,365.82562 C 878.80116,363.44415 883.62358,366.73754 882.17664,363.57093 C 883.94175,366.14841 890.97717,363.35384 886.45152,361.27286 C 883.07652,361.18341 889.08388,356.14807 889.00574,360.57358 C 891.47297,361.71735 892.91889,359.2866 890.82408,358.05426 C 890.98239,355.98281 894.36276,357.6648 893.46034,357.49903 C 895.98751,355.23552 889.65992,361.50759 894.04063,360.05968 C 896.06967,359.18001 897.12674,354.41095 897.75094,354.45256 C 897.02471,358.13812 901.40488,358.55106 903.30933,357.01383 C 905.60591,357.05063 906.64,356.05926 903.9029,354.97122 C 902.42968,353.0188 903.05607,349.34527 905.63685,352.10457 C 907.96169,352.10284 908.35703,345.03046 910.32331,348.46627 C 907.243,348.78854 909.07501,354.76327 910.84166,351.35186 C 912.73082,349.57084 913.98149,348.10086 913.95835,345.56788 C 916.71226,350.67289 919.61037,342.63198 922.02772,346.58041 C 923.15336,345.72748 927.08185,342.54484 926.00813,346.53486 C 924.68982,348.49914 920.14276,352.42563 917.71856,349.59174 C 919.28454,349.44113 923.34281,348.08897 919.25005,348.25485 C 916.88078,348.63273 912.72169,351.88243 917.70216,351.81771 C 918.64036,354.45288 914.21398,356.39348 911.11342,356.81096 C 909.03341,357.70956 904.30929,356.89555 906.16731,359.98139 C 904.72332,361.72758 896.95067,359.21744 898.57901,360.72162 C 904.61314,361.63683 896.65874,364.52978 893.8666,363.07366 C 888.83654,362.87115 898.55791,364.83671 893.8423,364.4107 C 891.86345,364.47901 889.30961,363.5244 892.69054,364.18933 C 895.89177,367.17249 889.10853,367.30337 887.56559,368.77162 C 883.96469,369.46974 878.55235,365.51903 876.90792,370.00209 C 877.98657,371.29704 883.4356,367.74149 883.38031,370.45225 C 879.7672,370.56814 877.73301,373.46938 874.05995,373.29176 C 869.30623,373.63051 866.20466,376.69957 861.90959,377.88817 C 859.67541,378.81623 859.64425,378.63377 861.74649,377.61599 z M 875.74254,372.47789 C 876.87714,369.88308 872.86456,372.80162 875.74254,372.47789 z M 874.80378,369.29925 C 875.91633,368.93716 873.61827,368.90928 874.80378,369.29925 z M 876.4509,368.86029 C 877.17893,367.91807 874.81915,370.05422 876.4509,368.86029 z M 878.16782,368.38692 C 879.49381,366.76011 876.06371,367.59119 878.16782,368.38692 z M 877.43284,365.07815 C 878.38347,364.28629 876.3272,364.74645 877.43284,365.07815 z M 885.3136,366.63311 C 888.15768,368.30688 886.74701,363.36302 884.73607,365.80579 C 883.72504,366.27025 884.4579,366.86493 885.3136,366.63311 z M 887.82875,367.85697 C 887.11944,366.89692 887.58049,368.88422 887.82875,367.85697 z M 888.41571,365.54336 C 890.10349,365.53091 886.15574,365.13787 888.41571,365.54336 z M 894.58239,361.63759 C 893.4211,360.01407 893.61781,363.26481 894.58239,361.63759 z M 896.39586,362.60387 C 898.77381,363.18546 894.88489,361.11174 896.39586,362.60387 z M 899.30393,359.78851 C 902.35162,359.2511 896.05236,358.81866 899.18034,359.79579 L 899.30393,359.78851 z M 904.77489,359.34882 C 902.6276,358.04498 903.16842,359.58171 904.77489,359.34882 z M 907.25173,355.09052 C 909.71504,356.42065 914.98223,355.02163 909.75905,354.75752 C 908.85769,354.61203 907.89595,354.61085 907.25173,355.09052 z M 910.16865,354.44226 C 913.69637,353.48643 906.3081,352.8923 909.35252,354.46842 L 910.16865,354.44226 L 910.16865,354.44226 z M 910.4973,352.93982 C 911.28232,352.06719 909.07857,353.76489 910.4973,352.93982 z M 915.13177,352.6863 C 914.47946,351.84932 914.91499,353.51656 915.13177,352.6863 z M 914.8748,348.95652 C 915.43692,347.9626 913.45587,350.25996 914.8748,348.95652 z M 915.77516,349.05332 C 914.75965,348.65812 916.20621,349.95349 915.77516,349.05332 z M 919.70006,347.18145 C 919.28237,346.07927 919.69478,348.42202 919.70006,347.18145 z M 869.47707,370.10068 C 869.7486,369.00759 869.72193,371.23516 869.47707,370.10068 z M 870.31579,367.94472 C 870.90769,366.92798 870.34154,368.72944 870.31579,367.94472 z M 880.6383,370.9091 C 881.73632,370.10075 880.95558,372.09925 880.6383,370.9091 z M 878.3055,362.58156 C 877.57232,361.10981 879.59322,363.22108 878.3055,362.58156 z M 887.03014,369.65461 C 887.36881,368.60844 887.78233,370.37107 887.03014,369.65461 z M 891.38869,362.60867 C 891.79772,361.46207 892.26917,363.49706 891.38869,362.60867 z M 893.02919,362.75828 C 894.75173,362.20515 892.3725,363.50278 893.02919,362.75828 z M 899.03579,355.61752 C 901.28633,356.25443 903.47138,351.34399 902.42703,355.62101 C 901.86807,356.62692 899.81179,357.39492 899.03579,355.61752 z M 903.90028,357.92889 C 904.30935,356.78232 904.78072,358.81734 903.90028,357.92889 z M 915.23499,345.90139 C 913.36814,343.72511 919.86705,343.93387 916.63506,344.66041 C 916.34854,345.16946 916.09445,346.03049 915.23499,345.90139 z M 919.00885,350.632 C 921.44701,350.38682 918.90293,352.74381 919.00885,350.632 z "
         style="opacity:1;fill:#ffd42a;fill-opacity:1;display:inline"
         id="path3566" />
      <path
         d="M 863.34526,400.48468 C 861.542,400.53102 860.917,399.26535 859.29925,399.47921 C 857.66278,399.07504 858.25812,396.63572 857.32198,397.01533 C 857.70433,398.21902 857.21182,399.46405 859.19323,399.69722 C 861.1706,401.23136 856.48248,401.427 858.69324,402.83878 C 859.61805,404.42972 861.22164,407.1749 860.312,403.93911 C 859.80744,401.63019 864.40472,402.60875 863.61521,404.50187 C 862.33689,405.6513 865.21086,404.69988 865.24892,406.01786 C 866.32388,404.5807 869.12591,407.88191 867.96358,405.28584 C 868.69901,404.69001 865.74044,404.52946 865.46932,403.67876 C 864.59505,402.34322 861.12652,402.08896 863.64977,400.60591 C 863.52652,400.57006 863.57759,400.27387 863.34526,400.48468 z M 860.566,405.87807 C 860.59659,406.6652 861.96205,408.31546 862.15413,407.06559 C 861.66987,406.02491 863.55452,404.88703 860.86772,405.82284 L 860.566,405.87807 z M 868.5746,408.16063 C 869.2587,407.93346 867.89119,407.16184 868.5746,408.16063 z M 870.97634,409.97367 C 869.70532,410.19987 867.32322,409.09551 868.48034,408.24504 C 865.98216,407.71087 864.3591,409.14035 863.56319,409.47201 C 861.15157,409.87303 864.26421,411.28857 864.52134,412.01139 C 864.34625,410.25821 867.31922,409.76363 867.56655,411.69733 C 867.58023,413.431 865.19432,414.68183 867.44505,416.31719 C 867.89336,417.99632 868.17322,413.21253 870.11151,415.52388 C 872.01481,416.5998 869.55015,418.70083 868.1396,417.46179 C 869.05243,419.27734 870.619,420.80201 872.14801,422.34133 C 871.8503,420.55289 873.55784,418.44859 875.73375,420.14007 C 877.47705,420.47174 876.46798,422.06608 878.44566,421.89695 C 878.8322,422.92047 881.63752,422.75991 880.49329,424.32244 C 880.46137,425.71678 880.02142,426.4821 879.0613,427.20476 C 876.71041,427.87872 877.77629,430.42614 878.70268,430.94776 C 877.39479,429.31058 880.9697,427.26593 881.65153,429.61218 C 885.11266,429.63714 884.20173,429.18285 884.49703,427.53212 C 884.55736,425.86695 880.89986,425.42348 882.24747,423.76112 C 880.94816,422.14536 877.8624,420.75577 878.7304,418.71247 C 877.6151,418.50089 875.69888,418.19591 875.3577,417.86729 C 873.27732,420.15651 869.97081,415.96461 872.91782,414.90676 C 874.65974,414.86031 874.75316,418.1747 875.90992,416.60969 C 874.90414,415.40365 874.37391,413.70076 873.48618,412.67461 C 871.32135,412.94953 870.73878,411.09437 871.79387,410.30024 L 871.44246,409.9502 L 870.97634,409.97367 z M 882.27614,423.85855 C 882.3449,423.87863 882.2783,423.82278 882.27614,423.85855 z M 871.88938,417.96935 C 874.27086,419.28878 869.84534,421.46054 869.32543,419.13262 C 868.78914,417.9747 870.7,417.27507 871.88938,417.96935 z M 874.95559,422.38775 C 872.67341,423.31559 873.58262,425.28339 875.05873,426.18502 C 876.16215,426.24074 876.96737,427.28602 876.47623,425.92517 C 876.4601,424.75069 878.40084,423.98269 876.10755,423.59653 C 875.51865,423.16054 876.05433,422.55835 874.95559,422.38775 z M 886.55501,431.45006 C 886.18706,431.59514 886.86697,431.49299 886.55501,431.45006 z M 884.45727,431.06346 C 881.0437,428.47164 881.263,431.89596 880.07349,433.73308 C 880.77411,434.26567 882.25231,434.60418 882.67157,435.54264 C 885.28575,435.0007 885.11026,437.57253 884.20792,437.88432 C 885.88451,438.47201 887.37822,439.46474 887.92193,440.86108 C 889.24469,441.16506 891.35355,443.46582 890.07044,441.94074 C 888.30798,441.23244 886.86375,439.37789 889.12234,438.38303 C 890.09228,439.82928 892.07888,438.2572 890.59853,437.45519 C 890.36969,436.54406 889.31024,435.69329 890.01486,434.77747 C 889.15691,433.09021 888.12576,434.74247 886.5405,434.07254 C 885.07795,433.54852 882.52757,432.20253 884.74528,431.17486 L 884.45727,431.06346 z M 888.72423,434.7514 C 891.58574,437.08346 884.45486,437.51124 886.63646,434.87287 C 887.15553,434.37037 888.08783,434.35808 888.72423,434.7514 z M 871.20991,425.61844 C 871.44292,425.85886 871.40408,425.16622 871.20991,425.61844 z "
         style="opacity:1;fill:#93aca7;fill-opacity:1;display:inline"
         id="path3712" />
      <path
         d="M 811.57231,379.46448 C 814.56183,375.57311 819.04946,373.59357 822.47293,370.23209 C 822.2588,367.33675 818.11515,372.87913 820.81822,369.39955 C 822.13352,367.7044 822.8043,362.35194 823.93714,362.58402 C 826.23045,365.09162 827.9385,359.43374 827.25275,357.47787 C 828.81172,353.83 827.70469,362.50243 830.96563,359.20119 C 830.98072,357.51462 829.93735,356.36363 832.23435,357.3656 C 834.70469,358.22945 832.10968,351.98286 834.58666,355.7999 C 836.07584,356.67791 836.97281,353.45635 838.99664,354.02618 C 841.56527,353.28923 838.78333,348.66584 836.96597,351.33196 C 836.04035,349.54284 840.25404,344.88424 839.98805,347.05076 C 839.51153,351.60786 847.43829,346.92245 842.74856,345.7658 C 842.5079,344.11579 845.76185,341.18851 845.81253,344.21541 C 845.18625,342.72402 847.19752,341.2046 846.46092,343.51032 C 844.35705,344.00907 843.2829,349.85722 846.34203,346.77449 C 848.78666,344.51386 849.40212,338.24112 850.75389,337.08393 C 848.88995,340.17085 852.26941,345.19949 854.57619,340.90797 C 855.8124,339.94459 862.00158,338.11602 858.19302,337.80508 C 855.66217,337.17274 855.40031,331.60693 857.23616,331.30998 C 857.13201,333.7467 858.34366,332.96904 858.98048,332.67525 C 861.76984,332.32877 859.95337,324.73226 864.07367,325.41734 C 864.10199,327.07816 859.87398,331.15462 862.81312,332.44054 C 865.57925,331.64034 864.19657,327.08204 867.3945,326.59648 C 868.702,325.13579 865.19547,320.93816 868.43979,321.94543 C 870.10855,326.7693 873.06429,319.70972 875.43321,319.11334 C 876.22456,319.0614 876.01973,322.69097 877.57047,320.19212 C 877.72471,317.60221 882.4598,314.66077 881.03153,319.25042 C 879.27582,322.79083 875.67769,327.35114 871.76239,327.04358 C 870.74993,324.80651 877.50521,324.50689 875.63292,322.99899 C 872.62808,323.43051 868.79747,327.51694 868.82594,329.5311 C 870.14529,328.19452 875.08162,328.69422 871.49691,330.46224 C 872.22776,334.82682 866.18748,335.63807 863.96134,338.32815 C 862.65122,339.03581 857.47015,339.78452 859.05643,341.15723 C 862.39003,342.82978 856.20959,345.32529 854.4163,345.16355 C 853.15809,344.52105 847.76223,346.57737 851.10207,346.70608 C 852.34373,345.52172 855.26231,345.20647 853.65573,347.73439 C 851.83751,351.19021 845.45092,349.84521 844.35182,351.73062 C 845.33981,351.92805 849.65907,351.25239 847.52405,352.75426 C 846.24069,351.87107 841.9146,353.71501 842.53313,353.14013 C 844.12918,350.82948 848.92119,354.90189 844.96915,355.4019 C 842.06165,357.59399 839.60308,361.93887 835.538,361.06931 C 832.38797,358.40633 827.21811,363.97154 827.64987,365.75024 C 830.16285,365.35702 833.82968,360.44847 835.59477,363.38137 C 833.47491,364.92698 830.42023,364.9899 829.31425,367.99296 C 826.50151,370.56827 822.08584,370.05901 819.68851,373.33056 C 816.563,376.2883 813.1019,378.79599 809.66255,381.30836 C 810.20444,380.58709 810.92857,380.06967 811.57231,379.46448 z M 826.71217,368.54671 C 826.55741,367.66046 826.6714,366.99324 827.22837,367.06668 C 825.78377,366.31816 824.23232,369.74143 826.71217,368.54671 z M 825.59556,364.64464 C 826.65768,363.74161 824.37347,364.46885 825.59556,364.64464 z M 827.38205,363.57776 C 828.46387,361.97683 825.6956,365.29663 827.38205,363.57776 z M 829.24378,362.44489 C 830.35958,359.36573 826.83101,362.16763 829.24378,362.44489 z M 828.34601,358.31107 C 829.13779,356.72359 827.14517,358.36682 828.34601,358.31107 z M 836.99852,358.01441 C 839.58602,359.69578 839.7948,353.75339 837.0448,356.61507 C 835.97899,357.0645 834.94352,358.78312 836.99852,358.01441 z M 839.78086,358.87678 C 838.98079,357.86664 839.38486,360.26662 839.78086,358.87678 z M 840.35555,355.65912 C 842.36285,355.21226 838.03283,355.68301 840.35555,355.65912 z M 846.97907,348.68903 C 845.88449,346.65432 845.34908,351.29577 846.97907,348.68903 z M 848.98761,349.42111 C 851.73098,349.14643 847.1747,348.17661 848.98761,349.42111 z M 852.08315,344.85368 C 855.28875,344.95293 851.4121,342.11276 850.78007,344.84419 C 851.0362,345.30876 851.78048,345.01445 852.08315,344.85368 z M 858.04627,342.64947 C 856.124,341.73658 855.66059,343.28901 858.04627,342.64947 z M 860.62939,336.31222 C 862.26255,336.90627 866.69748,335.57781 866.37327,334.76253 C 864.48985,335.3935 862.12774,334.59338 860.62939,336.31222 z M 863.79682,334.59267 C 866.75437,334.20905 863.92464,331.48817 862.72676,333.87984 C 860.82476,335.03555 862.95273,335.07261 863.79682,334.59267 z M 864.11266,332.51877 C 865.03594,331.04101 862.65558,333.87171 864.11266,332.51877 z M 869.16745,330.80803 C 868.37518,329.94251 868.85219,331.97408 869.16745,330.80803 z M 868.77969,325.97839 C 869.63412,324.26707 867.12579,328.02081 868.77969,325.97839 z M 869.76591,325.83814 C 868.54181,325.61003 870.20843,327.10824 869.76591,325.83814 z M 873.99919,322.20956 C 873.47433,320.78031 874.02794,323.83294 873.99919,322.20956 z M 880.26758,318.76018 C 881.7672,316.79707 878.95687,318.68049 880.26758,318.76018 z M 819.8004,367.28179 C 820.15426,365.69488 820.10155,368.79637 819.8004,367.28179 z M 832.0146,365.02828 C 833.58137,363.69721 832.26673,366.64357 832.0146,365.02828 z M 829.22751,354.76782 C 828.56458,353.16916 830.54631,355.17294 829.22751,354.76782 z M 843.51858,350.91545 C 844.1946,349.354 844.43019,351.79674 843.51858,350.91545 z M 845.31475,350.62471 C 847.32812,349.62009 844.34647,351.77799 845.31475,350.62471 z M 851.67053,339.44701 C 853.8729,338.66099 855.20436,337.81588 854.84742,335.32232 C 857.69358,336.35193 853.38759,343.00029 851.67053,339.44701 L 851.67053,339.44701 z M 857.0502,341.04168 C 857.72623,339.48027 857.96178,341.92305 857.0502,341.04168 z M 869.08541,321.85275 C 867.49021,318.58542 873.10723,318.86623 871.9639,319.34964 C 870.91243,316.60028 870.45774,322.19643 869.08541,321.85275 z "
         style="opacity:1;fill:#decd87;fill-opacity:1;display:inline"
         id="path3718" />
      <path
         d="M 824.91407,399.10449 C 829.13138,397.22652 834.12399,397.72904 838.57536,396.52297 C 839.05921,394.37188 834.24199,396.10541 837.83888,394.76486 C 839.91457,393.34318 841.70033,389.00338 844.6891,391.836 C 850.04295,382.29496 848.77971,395.62507 851.42582,389.43829 C 853.28835,391.08317 854.42509,390.1931 854.98416,388.72939 C 855.93381,391.99696 859.16914,390.16584 861.39483,390.21497 C 863.45347,388.2783 859.53718,387.33496 859.61731,386.42989 C 860.52224,384.56677 865.27909,383.38127 863.62076,386.79064 C 864.66832,389.11587 869.68837,387.4988 866.86748,385.35693 C 866.99475,383.6204 871.30843,383.2229 870.29471,385.54284 C 870.22653,383.26597 873.08151,385.12243 870.28784,385.19901 C 867.86873,385.09253 867.37457,389.86307 870.35724,387.85256 C 883.76172,375.48248 870.49521,390.80941 880.04227,387.05513 C 881.96704,387.42568 887.13506,387.90204 883.37185,384.97858 C 882.44525,382.91776 885.17014,377.83322 886.36813,381.99765 C 890.119,383.27801 890.5694,376.12535 894.09064,378.3832 C 893.47363,380.00548 888.60573,380.97584 890.82475,383.71854 C 893.27439,383.18149 895.02414,380.72585 897.77891,380.23721 C 897.42646,378.18191 899.72148,375.21786 900.11621,379.03141 C 902.52142,381.75288 907.20688,375.68789 908.05856,380.61028 C 909.6198,380.40044 913.11642,376.99363 913.21406,380.40497 C 911.45691,382.96913 908.13457,383.95982 905.13079,384.53937 C 903.42133,385.3847 899.09961,382.66738 902.8952,382.72988 C 904.43488,383.25021 907.74026,382.23471 904.35421,381.67733 C 901.69329,381.58548 898.81558,382.17338 897.23733,384.28724 C 899.22557,383.4517 902.45417,386.83052 899.14396,386.81686 C 897.06703,390.24977 892.34094,389.04463 888.77467,389.15355 C 887.18067,389.1836 882.18645,387.48664 884.1575,390.88603 C 881.02115,393.56767 877.05292,389.12083 873.56211,389.48505 C 874.10226,390.67322 878.50881,390.71487 876.03771,392.62904 C 872.88586,394.54058 869.65918,391.00959 866.40232,391.37521 C 867.05614,391.92745 870.85711,394.10629 867.82776,393.39705 C 866.55036,392.67392 861.89521,390.90832 865.89987,392.16308 C 868.40169,394.44806 865.56054,395.6171 863.661,395.26255 C 860.08513,396.62441 854.95805,397.05634 852.0424,393.21194 C 850.08199,392.33702 844.72411,393.376 846.07117,395.43721 C 848.4122,395.74464 852.11174,393.86383 853.33627,397.13513 C 845.08748,397.34949 836.96141,397.49659 828.75758,398.98122 C 827.22196,399.13215 822.5237,399.94094 823.02866,399.532 C 823.64291,399.34689 824.28916,399.25819 824.91407,399.10449 z M 847.8719,393.12846 C 850.28407,391.39083 845.82593,391.51961 847.8719,393.12846 z M 856.74617,393.15704 C 858.6787,395.95036 860.23316,390.17221 856.94853,391.92866 C 855.95133,391.94243 854.82175,393.02407 856.74617,393.15704 z M 860.76057,392.78777 C 862.67858,393.3715 858.44149,391.60275 860.76057,392.78777 z M 869.59895,390.03225 C 869.0696,387.81663 867.73318,391.63641 869.59895,390.03225 z M 871.15492,391.67978 C 873.41552,393.48287 870.20614,389.13617 871.15492,391.67978 z M 875.80305,389.24892 C 879.1562,390.42293 873.67753,386.2701 875.09773,389.11344 C 875.33284,389.1586 875.56794,389.20376 875.80305,389.24892 z M 882.15193,390.32038 C 881.0109,388.44473 879.72536,390.02076 882.15193,390.32038 z M 887.02858,386.08792 C 887.79313,387.73571 894.83607,388.57414 890.91704,386.85387 C 889.69691,386.26108 888.28215,385.58173 887.02858,386.08792 z M 890.61763,386.1782 C 894.60088,386.60728 888.30081,382.97715 889.25156,385.7517 C 889.66628,386.03523 890.15336,386.12299 890.61763,386.1782 z M 891.72712,384.52714 C 893.35015,383.78391 889.58312,385.02579 891.72712,384.52714 z M 898.5984,381.16403 C 899.68773,380.22303 896.69717,382.0575 898.5984,381.16403 z M 899.55983,381.53691 C 898.58782,380.8055 899.64195,382.70544 899.55983,381.53691 z M 904.88228,380.49671 C 905.01705,379.13682 904.22916,381.88872 904.88228,380.49671 z M 912.00343,380.6349 C 913.9556,380.43859 911.27756,379.46517 912.00343,380.6349 z M 837.28584,392.60641 C 838.16943,391.52173 836.95429,393.87574 837.28584,392.60641 z M 839.28938,390.34344 C 840.50532,389.38054 838.73554,391.30548 839.28938,390.34344 z M 849.39668,396.77418 C 851.03547,396.14353 849.17682,398.27628 849.39668,396.77418 z M 857.17958,397.16498 C 858.15668,395.98716 857.65692,398.24326 857.17958,397.16498 z M 865.54042,390.23707 C 866.38483,389.10449 866.15539,391.40362 865.54042,390.23707 z M 867.30531,390.88548 C 869.49557,390.77982 866.24454,391.54741 867.30531,390.88548 z M 873.24611,393.55789 C 875.47811,392.54994 871.9124,394.54433 873.24611,393.55789 z M 877.56001,384.32401 C 879.58642,386.37271 883.50517,380.55793 882.12432,384.53736 C 881.28942,385.94716 877.74143,387.23483 877.56001,384.32401 z M 881.87208,388.41719 C 882.71652,387.28467 882.48697,389.58375 881.87208,388.41719 z M 900.50917,377.71763 C 899.33776,374.7397 906.67007,376.73471 902.6953,376.67248 C 902.1127,377.18732 901.47698,378.0929 900.50917,377.71763 z M 902.40541,384.30689 C 905.50147,384.78562 901.06412,386.83797 902.40541,384.30689 z "
         style="opacity:1;fill:#93aca7;fill-opacity:1;display:inline"
         id="path3720" />
      <path
         d="M 819.70096,398.60223 C 825.71879,395.40286 834.29631,377.36389 833.91612,385.48141 C 831.50811,390.24976 830.78999,392.54903 834.95694,387.39753 C 838.0447,385.42519 849.51159,386.6508 843.85196,381.84354 C 849.45534,380.37467 857.48447,379.02354 857.8413,372.82243 C 869.4705,373.62854 853.66164,382.1211 849.91131,384.82665 C 844.5486,390.4213 839.58577,395.31258 831.02779,392.69753 C 825.11441,393.763 826.99071,398.19704 832.10037,395.32724 C 832.18177,402.02849 821.50355,396.99154 819.70096,398.60223 z M 829.78116,398.76327 C 830.5342,397.79505 826.26925,399.63118 829.78116,398.76327 z M 834.5054,390.47365 C 839.41365,390.3461 846.9985,386.63054 837.72428,387.46839 C 836.27737,387.62717 833.96191,388.60082 834.5054,390.47365 z M 855.66355,379.0963 C 852.96215,377.35641 854.79565,382.74532 855.66355,379.0963 z M 834.06443,385.10406 C 835.0928,379.26153 836.62964,383.64646 837.10012,382.82151 C 837.74441,378.59351 847.0565,370.16615 841.83065,379.00936 C 840.05925,381.82565 838.53842,387.33172 834.06443,385.10406 z M 841.85379,381.04098 C 844.36854,376.42714 847.64875,369.36835 848.7874,373.74998 C 850.27521,368.51388 852.84499,366.62229 853.24617,369.97131 C 860.82459,362.7769 850.65135,378.79268 845.47267,378.36921 C 844.19922,379.16227 842.95591,380.01819 841.85379,381.04098 z M 845.28244,388.64718 C 846.8648,388.18625 844.06012,390.24038 845.28244,388.64718 z M 857.93357,368.04919 C 858.62848,364.07519 863.37705,354.58437 861.65108,364.10336 C 861.84509,365.17 858.73482,371.31113 857.93357,368.04919 z M 860.51773,370.55794 C 863.95674,369.22741 869.30517,367.32571 872.07451,365.32607 C 875.41086,362.91701 876.15965,360.39978 880.54679,359.0158 C 880.68039,355.4458 874.13193,356.70345 880.84661,354.4762 C 889.94879,353.20091 876.14698,367.84977 871.24658,369.38327 C 868.37548,371.97154 863.83006,372.86419 860.51773,370.55794 z M 869.79636,368.80035 C 868.68201,366.18465 868.5805,371.48532 869.79636,368.80035 z M 872.86092,367.25033 C 875.63808,364.64329 872.97816,365.93675 871.96221,366.81614 C 871.38649,367.31448 871.8499,367.42424 872.86092,367.25033 z M 875.87271,365.53185 C 876.30026,363.59186 874.26093,367.14328 875.87271,365.53185 z M 876.44638,365.94915 C 875.18656,365.39873 876.64987,367.38704 876.44638,365.94915 z M 878.55741,361.88628 C 876.98907,361.05408 877.03956,362.17818 877.51724,362.56725 C 877.93477,362.90733 878.71423,362.5259 878.55741,361.88628 z M 862.55277,364.5472 C 863.68408,360.89487 869.01459,349.78613 865.85186,359.42128 C 865.54637,361.44817 865.08378,364.23354 862.55277,364.5472 z M 865.47629,361.77282 C 868.30662,358.47947 870.87221,352.5986 868.79284,360.47593 C 868.43782,361.88981 866.64351,363.41869 865.47629,361.77282 z M 870.95591,357.01427 C 871.1202,349.84621 877.43289,354.77487 871.41789,358.20247 L 870.86742,358.1784 L 870.95591,357.01427 L 870.95591,357.01427 z M 872.19406,356.90578 C 874.74675,355.38011 870.31515,355.55247 872.19406,356.90578 z M 871.95255,359.4519 C 876.30914,356.4892 879.77508,360.8858 872.91446,359.79424 L 872.40419,359.61264 L 871.95255,359.4519 z M 875.14511,353.8926 C 876.29687,349.48042 881.24187,344.87556 877.56682,352.01163 C 877.303,352.14604 875.65231,355.79002 875.14511,353.8926 z M 879.6138,351.62148 C 885.5246,348.0068 885.73014,352.05606 879.6138,351.62148 z M 880.65152,348.49197 C 880.59396,342.64064 892.66055,344.81011 886.39421,346.68686 C 885.37641,342.82485 881.06053,353.53712 880.65152,348.49197 z M 880.48606,345.10433 C 878.88442,339.9659 884.8088,345.30357 880.48606,345.10433 z "
         style="opacity:1;fill:#d45500;fill-opacity:1;display:inline"
         id="path3725" />
      <path
         d="M 819.32413,369.36715 C 821.43734,371.20623 821.46796,367.59547 820.03622,367.0352 C 818.19456,365.03616 822.86964,363.88256 822.94835,366.39791 C 820.94577,377.39032 836.3084,354.5731 837.20641,352.9844 C 837.7046,351.77591 837.29509,351.15209 835.68637,350.76778 C 834.45555,353.90942 829.68324,364.55776 819.32413,369.36715 z M 822.75067,366.28857 C 822.03961,365.39019 821.42438,362.42831 823.77082,364.44609 C 825.86465,363.5802 822.00689,360.75244 823.4971,359.17025 C 825.03633,359.25923 823.00371,356.12561 825.70084,357.05399 C 825.15617,358.821 826.00564,360.52479 826.38226,362.27191 C 826.80904,363.8949 825.86331,365.91978 822.75067,366.28857 z M 826.10027,353.97463 C 826.4167,353.34362 828.51925,356.6871 829.37193,354.4498 C 828.79468,353.29985 826.36507,350.35475 828.54964,349.97927 C 828.85873,350.9995 831.31877,351.92617 830.91372,350.19732 C 830.33831,349.18338 830.75998,347.42035 832.47701,348.97825 C 834.71017,351.27321 831.70105,353.87013 830.04699,356.06466 C 827.13401,363.41712 826.14993,360.03839 826.10027,353.97463 z M 833.54002,347.96989 C 832.88578,346.04192 831.45646,344.2192 831.3813,342.21088 C 832.8943,342.49103 834.51028,344.88758 835.52085,346.16178 C 836.07295,347.04701 835.00525,347.82885 833.54002,347.96989 z M 837.30078,348.21465 C 850.54973,321.5415 851.90537,341.58234 837.30078,348.21465 z M 835.50807,344.32174 C 836.45601,341.80339 831.66498,339.89037 833.66707,337.37682 C 835.14717,335.857 833.66895,338.9585 834.91219,339.58801 C 835.2164,340.90989 838.42952,343.384 835.50807,344.32174 z M 836.42143,341.72737 C 838.61284,340.55007 835.13495,337.5053 836.61065,337.2111 C 838.29767,338.17302 840.05588,340.93698 836.98812,341.70295 L 836.42143,341.72737 L 836.42143,341.72737 z M 838.3964,337.09054 C 835.43538,335.43206 839.2742,331.95265 839.94223,335.56974 C 840.08982,336.13623 840.10792,338.01418 838.3964,337.09054 z M 839.41814,336.5374 C 840.84005,334.81039 836.93839,336.3858 839.41814,336.5374 z M 840.72192,337.93699 C 845.01997,334.02421 846.34015,336.7901 840.72192,337.93699 z M 840.21356,333.80977 C 840.15291,332.03327 839.12824,330.27574 839.44242,328.5147 C 840.88306,329.90748 842.02055,332.0557 840.87845,333.71874 L 840.58701,333.7989 L 840.21356,333.80977 L 840.21356,333.80977 z M 842.78225,330.85182 C 842.54724,329.86712 847.64449,327.21074 845.294,329.34065 C 844.59731,329.92886 843.73814,330.42669 842.78225,330.85182 z M 841.82971,328.83376 C 840.4454,327.10264 842.88759,324.93599 845.49107,324.0406 C 848.0359,323.16108 847.59396,327.05191 845.88027,325.09463 C 842.49074,324.7597 845.49772,328.98675 842.46748,329.12747 L 842.16855,329.01093 L 841.82971,328.83376 L 841.82971,328.83376 z M 839.6679,327.16719 C 837.28413,325.96519 840.75081,325.4044 840.51338,326.94926 C 840.35737,327.01314 839.7879,327.43684 839.6679,327.16719 z "
         style="opacity:1;fill:#93aca7;fill-opacity:1;display:inline"
         id="path3727" />
      <path
         d="M 885.24004,408.10684 C 887.64576,410.89908 895.8069,410.84827 895.92986,413.82073 C 892.16592,412.44496 897.47752,416.29626 897.2585,418.02946 C 899.21088,418.74104 902.34377,417.6147 901.76393,420.93381 C 902.13574,425.43629 903.67826,417.14687 905.53196,420.38032 C 904.43141,422.85937 909.85801,419.43103 908.22979,422.72739 C 910.21605,420.0443 918.1329,422.95338 913.04025,425.11963 C 909.24242,425.21274 916.00241,430.4544 915.91448,425.84756 C 918.69082,424.65692 920.31789,427.18727 917.96063,428.47011 C 918.13878,430.62643 921.94266,428.87552 920.92718,429.04809 C 923.77096,431.40434 916.65062,424.87528 921.58017,426.38252 C 923.86342,427.29823 925.05292,432.2627 925.75533,432.21939 C 924.93811,428.38281 929.86705,427.95295 932.0101,429.55317 C 934.59441,429.51486 935.75806,430.54685 932.67804,431.67947 C 931.02024,433.71189 931.72511,437.53595 934.62923,434.66358 C 937.24533,434.66538 937.69021,442.02755 939.90283,438.45096 C 936.4366,438.11549 938.49814,431.89594 940.48612,435.44714 C 942.61197,437.30113 944.01933,438.83135 943.99329,441.46811 C 947.09222,436.15393 950.35343,444.52431 953.07363,440.4141 C 954.3403,441.30197 958.76097,444.61502 957.55273,440.46151 C 956.06926,438.41675 950.95252,434.32937 948.2246,437.27938 C 949.98677,437.43616 954.55349,438.84372 949.94796,438.67105 C 947.28186,438.27768 942.60169,434.89483 948.20614,434.9622 C 949.26189,432.21905 944.28095,430.19894 940.79193,429.76435 C 938.45133,428.82893 933.13534,429.67629 935.22615,426.46401 C 933.60124,424.64627 924.85479,427.25927 926.68714,425.69345 C 933.47726,424.74074 924.52629,421.72925 921.38434,423.24504 C 915.72408,423.45585 926.6634,421.40975 921.35699,421.85321 C 919.13022,421.7821 916.25642,422.77583 920.06093,422.08365 C 923.66323,418.97826 916.03015,418.84202 914.2939,417.31361 C 910.24186,416.58688 904.15143,420.69947 902.30098,416.03272 C 903.51477,414.68471 909.64648,418.38595 909.58427,415.56411 C 905.51849,415.44347 903.22944,412.42336 899.0962,412.60825 C 893.74691,412.25562 890.25676,409.06081 885.42358,407.82351 C 882.90949,406.85742 882.87442,407.04736 885.24004,408.10684 z M 900.98959,413.45547 C 902.26634,416.1566 897.75105,413.11848 900.98959,413.45547 z M 899.93322,416.76436 C 901.18516,417.14128 898.59918,417.17031 899.93322,416.76436 z M 901.7867,417.2213 C 902.60594,418.20213 899.95052,415.97845 901.7867,417.2213 z M 903.71873,417.71407 C 905.21084,419.40754 901.351,418.5424 903.71873,417.71407 z M 911.75977,419.53974 C 914.96017,417.79739 913.37276,422.94382 911.10988,420.40096 C 909.97219,419.91747 910.79686,419.29842 911.75977,419.53974 z M 915.25053,420.67414 C 917.14976,420.6871 912.70742,421.09625 915.25053,420.67414 z M 922.1898,424.73995 C 920.88302,426.42999 921.10438,423.04606 922.1898,424.73995 z M 924.23047,423.73408 C 926.90635,423.12866 922.5302,425.28735 924.23047,423.73408 z M 927.50288,426.6648 C 930.9324,427.22423 923.84394,427.67439 927.36381,426.65722 L 927.50288,426.6648 z M 933.65928,427.1225 C 931.24296,428.47977 931.85154,426.88007 933.65928,427.1225 z M 936.44643,431.55529 C 939.21835,430.17065 945.14545,431.627 939.26788,431.90193 C 938.25359,432.05338 937.17136,432.05461 936.44643,431.55529 z M 939.72879,432.23011 C 943.69849,433.2251 935.38457,433.84358 938.81042,432.20288 L 939.72879,432.23011 L 939.72879,432.23011 z M 940.09862,433.79411 C 940.98199,434.7025 938.50214,432.93523 940.09862,433.79411 z M 945.31372,434.05802 C 944.57969,434.92929 945.06978,433.19374 945.31372,434.05802 z M 945.02456,437.94062 C 945.6571,438.97527 943.42786,436.58378 945.02456,437.94062 z M 946.03772,437.83986 C 944.89498,438.25125 946.52277,436.9028 946.03772,437.83986 z M 950.45435,439.78843 C 949.98433,440.93577 950.44841,438.49703 950.45435,439.78843 z M 906.49872,415.08854 C 907.73431,415.93001 906.85575,413.84963 906.49872,415.08854 z M 918.59598,423.72908 C 919.05625,424.92266 919.58677,422.80429 918.59598,423.72908 z M 920.44201,423.57334 C 922.38036,424.14914 919.70305,422.79834 920.44201,423.57334 z M 926.84411,422.65355 C 928.447,423.90709 926.00839,421.54913 926.84411,422.65355 z M 927.20115,431.00669 C 929.73365,430.34368 932.19245,435.45533 931.01726,431.00306 C 930.38827,429.95593 928.07437,429.15646 927.20115,431.00669 z M 932.67509,428.60061 C 933.13541,429.79416 933.66584,427.67576 932.67509,428.60061 z M 945.42987,441.12094 C 943.32913,443.38639 950.64226,443.16908 947.00535,442.41277 C 946.68294,441.88286 946.39701,440.98655 945.42987,441.12094 z M 949.67654,436.19649 C 952.42017,436.45172 949.55735,433.99815 949.67654,436.19649 z "
         style="opacity:1;fill:#d45500;fill-opacity:1;display:inline"
         id="path3762" />
      <path
         d="M 826.61442,393.54461 C 829.02014,395.94726 837.18128,394.5748 837.30424,397.52734 C 833.5403,396.76112 838.8519,399.75224 838.63288,401.52091 C 840.58526,401.91631 843.71815,400.28262 843.13831,403.69563 C 843.51012,408.1379 845.05264,399.59868 846.90634,402.53193 C 845.80579,405.18921 851.23239,400.88206 849.60417,404.4421 C 851.59043,401.43735 859.50728,403.06434 854.41463,406.05532 C 850.6168,406.76346 857.37679,410.91038 857.28886,406.31778 C 860.0652,404.67753 861.69227,406.94438 859.33501,408.60897 C 859.51316,410.73644 863.31704,408.36951 862.30156,408.70653 C 865.14534,410.60225 858.025,405.22629 862.95455,405.93522 C 865.2378,406.48117 866.4273,411.253 867.12971,411.09594 C 866.31249,407.39171 871.24143,406.16363 873.38448,407.4168 C 875.96879,406.95998 877.13244,407.80352 874.05242,409.43493 C 872.39462,411.73582 873.09949,415.44573 876.00361,412.10306 C 878.61971,411.6812 879.06459,418.97132 881.27721,415.03641 C 877.81098,415.26227 879.87252,408.70887 881.8605,411.93813 C 883.98635,413.44785 885.39371,414.75016 885.36767,417.39113 C 888.4666,411.5751 891.72781,419.41735 894.44801,414.86661 C 895.71468,415.54935 900.13535,418.1465 898.92711,414.18866 C 897.44364,412.38414 892.3269,409.12539 889.59898,412.51717 C 891.36115,412.38857 895.92787,413.05658 891.32234,413.62975 C 888.65624,413.66814 883.97607,411.04321 889.58052,410.20298 C 890.63627,407.28885 885.65533,406.07538 882.16631,406.20581 C 879.82571,405.64944 874.50972,407.35769 876.60053,403.80682 C 874.97562,402.25222 866.22917,406.28166 868.06152,404.4191 C 874.85164,402.36677 865.90067,400.80484 862.75872,402.82945 C 857.09846,403.95691 868.03778,400.13925 862.73137,401.44205 C 860.5046,401.73155 857.6308,403.19068 861.43531,401.88238 C 865.03761,398.19362 857.40453,399.29351 855.66828,398.04627 C 851.61624,397.97575 845.52581,403.07465 843.67536,398.70757 C 844.88915,397.16299 851.02086,399.87124 850.95865,397.05947 C 846.89287,397.59726 844.60382,394.94785 840.47058,395.80209 C 835.12129,396.31575 831.63114,393.68615 826.79796,393.23155 C 824.28387,392.67261 824.2488,392.86823 826.61442,393.54461 z M 842.36397,396.34269 C 843.64072,398.83706 839.12543,396.53016 842.36397,396.34269 z M 845.09311,400.15932 C 846.58522,401.61115 842.72538,401.37109 845.09311,400.15932 z M 844.26604,403.7376 C 845.33577,404.38867 843.02188,404.28439 844.26604,403.7376 z M 853.13415,400.68279 C 856.33455,398.42216 854.74714,403.82566 852.48426,401.64926 C 851.34657,401.35001 852.17124,400.59741 853.13415,400.68279 z M 855.96441,398.95044 C 855.16623,400.07909 855.68505,397.92634 855.96441,398.95044 z M 856.62491,401.25188 C 858.52414,400.95728 854.0818,402.08584 856.62491,401.25188 z M 863.56418,404.19392 C 862.2574,406.09559 862.47876,402.67581 863.56418,404.19392 z M 865.60485,402.85758 C 868.28073,401.81881 863.90458,404.68619 865.60485,402.85758 z M 868.87726,405.25835 C 872.30678,405.26239 865.21832,406.86048 868.73819,405.27329 L 868.87726,405.25835 z M 875.03366,404.71905 C 872.61734,406.46763 873.22592,404.76938 875.03366,404.71905 z M 877.82081,408.70048 C 880.59273,406.86695 886.51983,407.36344 880.64226,408.5902 C 879.62797,408.90591 878.54574,409.0824 877.82081,408.70048 z M 881.10317,408.84374 C 885.07287,409.19586 876.75895,411.16073 880.1848,408.96524 L 881.10317,408.84374 L 881.10317,408.84374 z M 881.473,410.34785 C 882.35637,411.11318 879.87652,409.74751 881.473,410.34785 z M 886.6881,409.76721 C 885.95407,410.75735 886.44416,408.94243 886.6881,409.76721 z M 886.39894,413.69663 C 887.03148,414.62885 884.80224,412.59837 886.39894,413.69663 z M 887.4121,413.4318 C 886.26936,414.02825 887.89715,412.41619 887.4121,413.4318 z M 891.82873,414.66512 C 891.35871,415.88858 891.82279,413.37468 891.82873,414.66512 z M 898.3256,414.98498 C 899.99922,415.30509 897.2245,415.92315 898.3256,414.98498 L 898.3256,414.98498 z M 841.30578,395.17886 C 844.01084,394.82656 839.4482,394.56956 841.30578,395.17886 z M 847.8731,397.08359 C 849.10869,397.72496 848.23013,395.78686 847.8731,397.08359 z M 859.97036,403.76505 C 860.43063,404.88409 860.96115,402.67981 859.97036,403.76505 z M 861.81639,403.31035 C 863.75474,403.57225 861.07743,402.65502 861.81639,403.31035 z M 868.57553,409.6491 C 871.10803,408.57597 873.56683,413.28943 872.39164,409.02747 C 871.76265,408.08221 869.44875,407.65746 868.57553,409.6491 z M 874.04947,406.35655 C 874.50979,407.47555 875.04022,405.27125 874.04947,406.35655 z M 870.94275,414.39959 C 871.78,415.98966 870.87082,413.12077 870.94275,414.39959 z M 891.05092,411.19914 C 893.79455,411.01006 890.93173,409.02011 891.05092,411.19914 z "
         style="opacity:1;fill:#decd87;fill-opacity:1;display:inline"
         id="path3764" />
      <path
         d="M 774.27742,398.96936 C 776.09463,399.142 779.74116,401.33601 780.28087,400.6907 C 780.13849,398.4281 784.59306,400.27427 785.36651,401.51677 C 788.51345,402.49035 782.59297,398.945 786.55197,398.95001 C 787.58314,399.73429 787.65404,400.76844 788.42632,399.21061 C 789.38641,397.63551 791.61349,401.79549 790.78787,398.83146 C 791.15013,397.71432 793.64114,398.8013 794.51125,397.5756 C 796.50048,396.70513 797.63161,400.19194 794.92445,399.80142 C 795.4528,401.07925 800.80658,401.27006 799.33388,400.37937 C 796.28602,398.46659 803.88598,396.9118 801.77046,399.6752 C 802.62586,400.56343 806.35404,400.39626 804.55013,398.9519 C 805.07782,399.94828 807.2065,399.7089 805.36682,398.97574 C 803.80107,399.73791 799.61189,397.50228 803.31727,397.50032 C 806.15542,397.40356 810.32643,400.05561 811.83952,399.95854 C 808.84939,399.3926 807.83152,395.4327 811.81762,396.35421 C 813.14387,396.22092 817.96901,394.14832 815.87016,396.09763 C 814.73344,397.59274 817.94916,400.32849 819.23166,399.59853 C 817.69241,398.50442 818.89136,398.29561 819.45186,398.13193 C 821.33701,396.97371 824.84974,401.39849 826.90906,399.12601 C 825.91958,398.33326 820.90998,398.4224 821.89584,396.42726 C 824.042,395.49296 825.97402,398.28665 828.18885,397.00025 C 829.85928,397.06655 830.29723,400.69667 831.63522,398.68779 C 829.71406,395.63401 835.76742,397.54714 837.55151,396.70528 C 838.05825,396.35493 835.73565,394.74875 838.18131,395.18704 C 839.84348,396.32932 844.46976,395.46747 840.83059,393.99008 C 837.63062,393.16009 832.70608,392.72393 830.54109,394.72219 C 831.28874,396.25135 835.52729,393.19323 835.31668,394.78737 C 833.25057,396.00771 828.4736,395.90399 827.27008,394.94536 C 828.87242,394.94783 831.53417,392.37594 828.30988,393.24369 C 826.10379,390.84955 821.98458,393.32902 819.01741,393.12081 C 817.80175,393.40909 814.23646,395.51107 814.35724,394.11579 C 815.34567,391.75245 810.12161,393.50795 809.14263,394.43298 C 808.77637,395.33025 804.28965,396.92034 806.21743,395.27849 C 807.68088,395.24631 809.6247,394.01225 807.12789,393.58676 C 803.94165,392.82607 800.92119,396.48134 799.11852,396.11705 C 799.59222,395.55658 802.59567,393.82841 800.40329,394.13462 C 800.16778,395.15674 796.45224,396.33993 797.1721,396.31681 C 799.53092,396.64533 799.94087,392.46528 797.26441,394.10198 C 794.18982,394.45009 790.08022,393.57542 788.16584,395.90832 C 787.88788,398.6495 781.41043,398.48602 780.5918,397.44693 C 782.33932,396.44152 787.51614,397.00856 786.79879,394.79651 C 784.58902,395.07502 782.71636,396.49192 780.23224,395.60643 C 776.98233,395.72983 775.04181,397.01253 771.61944,396.61251 C 768.2055,397.07249 773.81274,398.92485 774.27742,398.96936 z M 778.33395,396.57869 C 778.77808,397.06785 779.25089,397.32696 779.54088,397.02877 C 779.12693,398.06405 776.12062,397.19232 778.33395,396.57869 z M 780.02808,398.93847 C 781.2132,398.85929 779.40067,399.59963 780.02808,398.93847 z M 781.74753,398.59317 C 783.36743,398.83216 779.69303,398.58516 781.74753,398.59317 z M 783.55215,398.24322 C 786.08829,399.15977 782.27116,399.5158 783.55215,398.24322 z M 785.51816,400.60812 C 786.95571,400.97813 784.7632,401.15057 785.51816,400.60812 z M 790.89431,396.65026 C 791.42933,394.63606 795.15591,397.32567 791.77012,397.28498 C 790.85768,397.57877 789.1943,397.26261 790.89431,396.65026 z M 792.04267,394.92812 C 792.17435,395.78097 790.96258,394.46345 792.04267,394.92812 z M 794.33777,396.16589 C 795.81408,395.42509 792.92835,397.25451 794.33777,396.16589 z M 802.5396,396.30028 C 803.11532,397.77336 799.98097,395.84889 802.5396,396.30028 z M 803.3022,395.00568 C 805.11624,393.83555 802.96764,396.4481 803.3022,395.00568 z M 807.92922,395.68317 C 809.79423,394.1187 809.18726,397.28709 807.15239,396.30465 C 807.02468,395.96536 807.65003,395.75105 807.92922,395.68317 z M 812.84624,393.89388 C 812.24502,395.23247 811.02592,394.72343 812.84624,393.89388 z M 818.23806,395.6445 C 818.85887,394.59242 822.32739,393.1158 822.62675,393.65189 C 821.11326,394.24763 820.17956,395.74158 818.23806,395.6445 z M 821.18237,394.95158 C 823.19105,393.73115 823.14052,396.34784 820.97173,395.79276 C 819.12908,396.15106 820.38459,395.12605 821.18237,394.95158 z M 822.62888,395.7752 C 824.07892,396.03146 820.9339,395.83027 822.62888,395.7752 z M 834.81393,395.9314 C 835.36487,396.8506 833.8474,395.15602 834.81393,395.9314 z M 840.66888,394.58186 C 842.75917,394.79296 839.93001,395.23989 840.66888,394.58186 z M 776.54741,396.12479 C 778.85711,395.07836 774.14303,396.27434 776.54741,396.12479 z M 783.65063,395.71895 C 785.39822,395.60168 782.82315,394.84159 783.65063,395.71895 z M 799.11212,396.89411 C 800.46438,397.30672 799.12551,396.04891 799.11212,396.89411 z M 800.36703,396.18003 C 802.185,395.69809 799.0866,396.09735 800.36703,396.18003 z M 810.95796,398.41563 C 812.75696,397.74162 814.06874,397.50773 815.36552,398.84684 C 816.45085,397.016 809.83581,395.9352 810.95796,398.41563 L 810.95796,398.41563 z M 813.22239,395.11999 C 814.57462,395.53258 813.23572,394.27477 813.22239,395.11999 z M 831.54496,394.0158 C 833.7259,393.12136 829.84846,392.61587 831.54496,394.0158 z "
         style="opacity:1;fill:#ffd42a;fill-opacity:1;display:inline"
         id="path3766" />
    </g>
  </g>
</svg>
