<?xml version="1.0" encoding="UTF-8" standalone="no"?>
<!-- Created with Inkscape (http://www.inkscape.org/) -->
<svg
   xmlns:dc="http://purl.org/dc/elements/1.1/"
   xmlns:cc="http://web.resource.org/cc/"
   xmlns:rdf="http://www.w3.org/1999/02/22-rdf-syntax-ns#"
   xmlns:svg="http://www.w3.org/2000/svg"
   xmlns="http://www.w3.org/2000/svg"
   xmlns:xlink="http://www.w3.org/1999/xlink"
   xmlns:sodipodi="http://sodipodi.sourceforge.net/DTD/sodipodi-0.dtd"
   xmlns:inkscape="http://www.inkscape.org/namespaces/inkscape"
   width="744.09448819"
   height="1052.3622047"
   id="svg2"
   sodipodi:version="0.32"
   inkscape:version="0.44.1"
   sodipodi:docbase="/home/davide"
   sodipodi:docname="luca83.svg"
   inkscape:export-filename="/home/davide/luca83.png"
   inkscape:export-xdpi="29.971992"
   inkscape:export-ydpi="29.971992">
  <defs
     id="defs4">
    <linearGradient
       id="linearGradient2863">
      <stop
         style="stop-color:#ffc400;stop-opacity:1;"
         offset="0"
         id="stop2865" />
      <stop
         style="stop-color:yellow;stop-opacity:0.9631902;"
         offset="1"
         id="stop2867" />
    </linearGradient>
    <radialGradient
       inkscape:collect="always"
       xlink:href="#linearGradient2863"
       id="radialGradient2869"
       cx="-295.71429"
       cy="92.362183"
       fx="-295.71429"
       fy="92.362183"
       r="72.5"
       gradientTransform="matrix(1,0,0,1.53202,0,-49.1385)"
       gradientUnits="userSpaceOnUse" />
    <radialGradient
       inkscape:collect="always"
       xlink:href="#linearGradient2863"
       id="radialGradient2878"
       gradientUnits="userSpaceOnUse"
       gradientTransform="matrix(1,0,0,1.53202,0,-49.1385)"
       cx="-295.71429"
       cy="92.362183"
       fx="-295.71429"
       fy="92.362183"
       r="72.5" />
  </defs>
  <sodipodi:namedview
     id="base"
     pagecolor="#ffffff"
     bordercolor="#666666"
     borderopacity="1.0"
     inkscape:pageopacity="0.0"
     inkscape:pageshadow="2"
     inkscape:zoom="0.62716051"
     inkscape:cx="372.04724"
     inkscape:cy="526.18109"
     inkscape:document-units="px"
     inkscape:current-layer="svg2"
     inkscape:window-width="1280"
     inkscape:window-height="875"
     inkscape:window-x="0"
     inkscape:window-y="28"
     showguides="true"
     inkscape:guide-bbox="true" />
  <metadata
     id="metadata7">
    <rdf:RDF>
      <cc:Work
         rdf:about="">
        <dc:format>image/svg+xml</dc:format>
        <dc:type
           rdf:resource="http://purl.org/dc/dcmitype/StillImage" />
      </cc:Work>
    </rdf:RDF>
  </metadata>
  <g
     inkscape:label="Livello 1"
     inkscape:groupmode="layer"
     id="layer1" />
  <g
     id="g2871"
     transform="translate(32,70)">
    <path
       transform="matrix(0.783936,0,0,0.761512,512.676,217.0366)"
       d="M 54.285721 718.07648 A 265.71429 97.14286 0 1 1  -477.14287,718.07648 A 265.71429 97.14286 0 1 1  54.285721 718.07648 z"
       sodipodi:ry="97.14286"
       sodipodi:rx="265.71429"
       sodipodi:cy="718.07648"
       sodipodi:cx="-211.42857"
       id="path1952"
       style="fill:#ffdb00;fill-opacity:0.85882353;stroke:black;stroke-width:5;stroke-miterlimit:4;stroke-dasharray:none;stroke-opacity:1"
       sodipodi:type="arc" />
    <g
       id="g1971">
      <path
         style="fill:#37b3db;fill-opacity:1;fill-rule:evenodd;stroke:black;stroke-width:4.56712437;stroke-linecap:butt;stroke-linejoin:miter;stroke-miterlimit:4;stroke-dasharray:none;stroke-opacity:1"
         id="path1968"
         sodipodi:nodetypes="csscsc"
         d="M 592.76412,574.94127 C 649.32439,481.64781 615.43454,391.18853 554.24427,347.34199 C 489.14632,300.69538 394.19868,305.11325 380.52321,356.72391 C 353.99304,456.84717 367.25807,764.91875 367.25807,764.91875 C 367.25807,764.91875 396.44124,626.28653 441.54241,454.27991 C 486.64368,282.27329 632.5593,492.78885 592.76412,574.94127 z " />
      <path
         d="M 101.09488,574.94127 C 44.534611,481.6478 78.424451,391.18853 139.61472,347.34199 C 204.71268,300.69538 299.66031,305.11325 313.33579,356.72391 C 339.86596,456.84717 326.60092,764.91875 326.60092,764.91875 C 326.60092,764.91875 297.41776,626.28654 252.31658,454.27991 C 207.21532,282.27328 61.299694,492.78885 101.09488,574.94127 z "
         sodipodi:nodetypes="csscsc"
         id="path1944"
         style="fill:#37b3db;fill-opacity:1;fill-rule:evenodd;stroke:black;stroke-width:4.56712437;stroke-linecap:butt;stroke-linejoin:miter;stroke-miterlimit:4;stroke-dasharray:none;stroke-opacity:1" />
    </g>
    <path
       transform="matrix(1.31317,0,0,1.239063,735.2526,48.74035)"
       d="M -225.71429 92.362183 A 70 108.57143 0 1 1  -365.71429,92.362183 A 70 108.57143 0 1 1  -225.71429 92.362183 z"
       sodipodi:ry="108.57143"
       sodipodi:rx="70"
       sodipodi:cy="92.362183"
       sodipodi:cx="-295.71429"
       id="path1946"
       style="fill:url(#radialGradient2878);fill-opacity:1;stroke:black;stroke-width:5;stroke-miterlimit:4;stroke-dasharray:none;stroke-opacity:1"
       sodipodi:type="arc" />
  </g>
  <g
     id="g2888">
    <path
       style="font-size:17.69611931px;font-style:normal;font-weight:normal;fill:black;fill-opacity:1;stroke:none;stroke-width:1px;stroke-linecap:butt;stroke-linejoin:miter;stroke-opacity:1;font-family:Monospace"
       d="M 567.7173,116.41225 C 567.71729,115.33556 567.49305,114.52301 567.04457,113.9746 C 566.59609,113.4262 565.93325,113.152 565.05608,113.15199 C 564.1723,113.152 563.50287,113.42871 563.0478,113.98215 C 562.59271,114.53056 562.36518,115.34059 562.36518,116.41225 C 562.36518,117.47888 562.59271,118.28891 563.0478,118.84234 C 563.50287,119.39578 564.1723,119.6725 565.05608,119.6725 C 565.93325,119.6725 566.59609,119.3983 567.04457,118.84989 C 567.49305,118.30148 567.71729,117.48894 567.7173,116.41225 M 562.36518,113.25764 C 562.65537,112.84509 563.05438,112.52812 563.56223,112.30673 C 564.07666,112.08537 564.67024,111.97468 565.34298,111.97467 C 566.67523,111.97468 567.72388,112.36712 568.48895,113.15199 C 569.25401,113.93184 569.63653,115.00853 569.63654,116.38205 C 569.63653,117.77571 569.25071,118.87001 568.47906,119.66495 C 567.71399,120.45486 566.66204,120.84981 565.32318,120.84981 C 564.66365,120.84981 564.07996,120.74164 563.57212,120.5253 C 563.07088,120.30392 562.66856,119.98444 562.36518,119.56684 L 562.36518,120.63095 L 560.54486,120.63095 L 560.54486,108.88799 L 562.36518,108.88799 L 562.36518,113.25764 M 579.31191,117.91407 C 579.00851,118.50273 578.62269,119.27755 578.15443,120.23851 C 577.50148,121.56676 577.06289,122.37679 576.83866,122.66861 C 576.53526,123.06104 576.15603,123.35537 575.70096,123.55159 C 575.24588,123.74782 574.71495,123.84593 574.10818,123.84593 L 572.64402,123.84593 L 572.64402,122.6837 L 573.72236,122.6837 C 574.25658,122.6837 574.67538,122.56547 574.97877,122.329 C 575.28215,122.09253 575.66798,121.48123 576.13625,120.49511 L 571.85258,112.17844 L 573.78172,112.17844 L 577.0662,118.78951 L 580.30121,112.17844 L 582.23034,112.17844 L 579.31191,117.91407 M 605.69657,120.20078 C 605.20851,120.41712 604.70397,120.57812 604.18294,120.68378 C 603.6685,120.79447 603.14087,120.84981 602.60006,120.84981 C 600.88527,120.84981 599.54312,120.45737 598.5736,119.6725 C 597.61068,118.88762 597.12922,117.80087 597.12922,116.41225 C 597.12922,115.02362 597.61068,113.93687 598.5736,113.15199 C 599.54312,112.36712 600.88527,111.97468 602.60006,111.97467 C 603.13427,111.97468 603.65531,112.02751 604.16316,112.13316 C 604.67099,112.23883 605.18213,112.40234 605.69657,112.6237 L 605.69657,114.08025 C 605.2151,113.75323 604.73035,113.51676 604.2423,113.37085 C 603.76083,113.22495 603.21342,113.152 602.60006,113.15199 C 601.45906,113.152 600.58188,113.43374 599.96852,113.99724 C 599.35515,114.56075 599.04846,115.36575 599.04847,116.41225 C 599.04846,117.45371 599.35515,118.25872 599.96852,118.82724 C 600.58848,119.39075 601.46566,119.6725 602.60006,119.6725 C 603.23321,119.6725 603.80041,119.59955 604.30166,119.45364 C 604.80289,119.3027 605.26787,119.07127 605.69657,118.75933 L 605.69657,120.20078 M 614.33317,116.38205 L 613.7297,116.38205 C 612.66784,116.38206 611.86651,116.52545 611.32569,116.81223 C 610.79147,117.09398 610.52435,117.51661 610.52437,118.08011 C 610.52435,118.58827 610.72552,118.98322 611.12784,119.26496 C 611.53014,119.54672 612.08745,119.68759 612.79975,119.68759 C 613.80224,119.68759 614.59038,119.42345 615.16419,118.89517 C 615.73797,118.36185 616.02817,117.6273 616.03477,116.69148 L 616.03477,116.38205 L 614.33317,116.38205 M 617.86497,115.80849 L 617.86497,120.63095 L 616.03477,120.63095 L 616.03477,119.37817 C 615.64563,119.88129 615.15428,120.2536 614.56072,120.49511 C 613.97372,120.73158 613.25812,120.84981 612.41393,120.84981 C 611.28612,120.84981 610.38585,120.60831 609.71313,120.12531 C 609.04041,119.63728 608.70405,118.98573 608.70405,118.17066 C 608.70405,117.22982 609.11626,116.51539 609.94068,116.02735 C 610.77168,115.53932 611.98852,115.29531 613.5912,115.2953 L 616.03477,115.2953 L 616.03477,115.07644 C 616.02817,114.40226 615.80392,113.91423 615.36204,113.61235 C 614.92015,113.30545 614.21445,113.152 613.24493,113.15199 C 612.62498,113.152 611.99841,113.21992 611.36527,113.35576 C 610.73211,113.49161 610.11545,113.69034 609.51528,113.95196 L 609.51528,112.56333 C 610.188,112.36712 610.83105,112.22122 611.44441,112.12561 C 612.06437,112.025 612.66455,111.97468 613.24493,111.97467 C 614.16168,111.97468 614.94324,112.07782 615.58959,112.2841 C 616.24251,112.49039 616.77014,112.79981 617.17247,113.21237 C 617.42307,113.46394 617.60116,113.77587 617.70669,114.14818 C 617.8122,114.51546 617.86496,115.0689 617.86497,115.80849 M 625.65078,109.77854 L 625.65078,112.17844 L 629.78606,112.17844 L 629.78606,113.25764 L 625.65078,113.25764 L 625.65078,117.84615 C 625.65078,118.47003 625.80577,118.90523 626.11574,119.15176 C 626.42572,119.3983 626.96655,119.52156 627.73821,119.52156 L 629.78606,119.52156 L 629.78606,120.63095 L 627.56012,120.63095 C 626.19488,120.63095 625.23197,120.42216 624.67136,120.00456 C 624.11076,119.58696 623.83046,118.8675 623.83047,117.84615 L 623.83047,113.25764 L 620.87245,113.25764 L 620.87245,112.17844 L 623.83047,112.17844 L 623.83047,109.77854 L 625.65078,109.77854 M 637.85876,113.15199 C 636.93541,113.152 636.2363,113.4262 635.76144,113.9746 C 635.28657,114.52301 635.04914,115.33556 635.04914,116.41225 C 635.04914,117.48391 635.28657,118.29645 635.76144,118.84989 C 636.2363,119.3983 636.93541,119.6725 637.85876,119.6725 C 638.7887,119.6725 639.49109,119.3983 639.96597,118.84989 C 640.44083,118.29645 640.67825,117.48391 640.67826,116.41225 C 640.67825,115.33556 640.44083,114.52301 639.96597,113.9746 C 639.49109,113.4262 638.7887,113.152 637.85876,113.15199 M 637.85876,111.97467 C 639.39547,111.97468 640.56944,112.35454 641.38067,113.11426 C 642.19848,113.87398 642.6074,114.97331 642.6074,116.41225 C 642.6074,117.85622 642.20178,118.95806 641.39056,119.71778 C 640.57933,120.47246 639.40206,120.84981 637.85876,120.84981 C 636.32204,120.84981 635.14807,120.47246 634.33684,119.71778 C 633.52562,118.95806 633.12,117.85622 633.12,116.41225 C 633.12,114.97331 633.52562,113.87398 634.33684,113.11426 C 635.14807,112.35454 636.32204,111.97468 637.85876,111.97467 M 653.03463,116.41225 C 653.03462,115.33556 652.81038,114.52301 652.3619,113.9746 C 651.91342,113.4262 651.25058,113.152 650.37342,113.15199 C 649.48963,113.152 648.82021,113.42871 648.36513,113.98215 C 647.91004,114.53056 647.68251,115.34059 647.68251,116.41225 C 647.68251,117.47888 647.91004,118.28891 648.36513,118.84234 C 648.82021,119.39578 649.48963,119.6725 650.37342,119.6725 C 651.25058,119.6725 651.91342,119.3983 652.3619,118.84989 C 652.81038,118.30148 653.03462,117.48894 653.03463,116.41225 M 647.68251,113.25764 C 647.97271,112.84509 648.37172,112.52812 648.87956,112.30673 C 649.39399,112.08537 649.98757,111.97468 650.66031,111.97467 C 651.99256,111.97468 653.04122,112.36712 653.80628,113.15199 C 654.57134,113.93184 654.95386,115.00853 654.95387,116.38205 C 654.95386,117.77571 654.56804,118.87001 653.79639,119.66495 C 653.03132,120.45486 651.97937,120.84981 650.64053,120.84981 C 649.98098,120.84981 649.39729,120.74164 648.88946,120.5253 C 648.38821,120.30392 647.9859,119.98444 647.68251,119.56684 L 647.68251,120.63095 L 645.8622,120.63095 L 645.8622,108.88799 L 647.68251,108.88799 L 647.68251,113.25764 M 662.46267,117.56692 C 662.46267,118.1908 662.61107,118.66122 662.90787,118.97819 C 663.21124,119.29516 663.65642,119.45364 664.24342,119.45364 L 666.37041,119.45364 L 666.37041,120.63095 L 664.06535,120.63095 C 662.9771,120.63095 662.13291,120.36429 661.53273,119.83099 C 660.93915,119.29767 660.64235,118.54298 660.64236,117.56692 L 660.64236,109.89174 L 657.72393,109.89174 L 657.72393,108.80499 L 662.46267,108.80499 L 662.46267,117.56692 M 679.33026,116.05754 L 679.33026,116.73676 L 671.44554,116.73676 L 671.44554,116.78204 C 671.44554,117.70277 671.75881,118.41469 672.38537,118.91781 C 673.01852,119.42094 673.90889,119.6725 675.05649,119.6725 C 675.63687,119.6725 676.24363,119.60206 676.87679,119.46118 C 677.50994,119.32031 678.18596,119.10648 678.90486,118.8197 L 678.90486,120.20078 C 678.21235,120.41712 677.54292,120.57812 676.89658,120.68378 C 676.25682,120.79447 675.63687,120.84981 675.0367,120.84981 C 673.31531,120.84981 671.96986,120.45737 671.00035,119.6725 C 670.03083,118.88259 669.54608,117.79584 669.54608,116.41225 C 669.54608,115.06387 670.02094,113.98718 670.97066,113.18217 C 671.9204,112.37718 673.1867,111.97468 674.76959,111.97467 C 676.18098,111.97468 677.29229,112.33945 678.10353,113.06897 C 678.92134,113.79851 679.33025,114.7947 679.33026,116.05754 M 677.50995,115.65001 C 677.48356,114.83495 677.22964,114.2161 676.74818,113.79347 C 676.27331,113.36583 675.5874,113.152 674.69044,113.15199 C 673.81326,113.152 673.09107,113.37337 672.52387,113.81611 C 671.95667,114.25887 671.62031,114.87268 671.51478,115.65756 L 677.50995,115.65001 M 684.22731,119.56684 L 684.22731,123.84593 L 682.39709,123.84593 L 682.39709,112.17844 L 684.22731,112.17844 L 684.22731,113.25764 C 684.53068,112.84006 684.933,112.52309 685.43425,112.30673 C 685.94208,112.08537 686.52577,111.97468 687.18531,111.97467 C 688.52416,111.97468 689.57282,112.36964 690.33129,113.15953 C 691.09634,113.94945 691.47887,115.04375 691.47888,116.44243 C 691.47887,117.81597 691.09634,118.89517 690.33129,119.68004 C 689.56622,120.45989 688.51757,120.84981 687.18531,120.84981 C 686.51258,120.84981 685.9223,120.74164 685.41446,120.5253 C 684.91321,120.30392 684.51749,119.98444 684.22731,119.56684 M 689.56952,116.41225 C 689.56952,115.33556 689.34527,114.52301 688.8968,113.9746 C 688.45491,113.4262 687.79538,113.152 686.9182,113.15199 C 686.03442,113.152 685.36499,113.42871 684.90991,113.98215 C 684.45484,114.53056 684.22729,115.34059 684.22731,116.41225 C 684.22729,117.47888 684.45484,118.28891 684.90991,118.84234 C 685.36499,119.39578 686.03442,119.6725 686.9182,119.6725 C 687.79538,119.6725 688.45491,119.3983 688.8968,118.84989 C 689.34527,118.30148 689.56952,117.48894 689.56952,116.41225 M 699.6505,116.38205 L 699.04703,116.38205 C 697.98518,116.38206 697.18385,116.52545 696.64304,116.81223 C 696.10881,117.09398 695.8417,117.51661 695.8417,118.08011 C 695.8417,118.58827 696.04285,118.98322 696.44517,119.26496 C 696.84749,119.54672 697.40479,119.68759 698.11709,119.68759 C 699.11958,119.68759 699.90773,119.42345 700.48152,118.89517 C 701.0553,118.36185 701.3455,117.6273 701.35211,116.69148 L 701.35211,116.38205 L 699.6505,116.38205 M 703.18232,115.80849 L 703.18232,120.63095 L 701.35211,120.63095 L 701.35211,119.37817 C 700.96298,119.88129 700.47162,120.2536 699.87805,120.49511 C 699.29105,120.73158 698.57546,120.84981 697.73126,120.84981 C 696.60346,120.84981 695.7032,120.60831 695.03047,120.12531 C 694.35775,119.63728 694.02138,118.98573 694.02139,118.17066 C 694.02138,117.22982 694.43359,116.51539 695.25801,116.02735 C 696.08903,115.53932 697.30586,115.29531 698.90853,115.2953 L 701.35211,115.2953 L 701.35211,115.07644 C 701.3455,114.40226 701.12126,113.91423 700.67939,113.61235 C 700.23749,113.30545 699.53179,113.152 698.56228,113.15199 C 697.94231,113.152 697.31576,113.21992 696.68261,113.35576 C 696.04945,113.49161 695.43279,113.69034 694.83261,113.95196 L 694.83261,112.56333 C 695.50534,112.36712 696.14838,112.22122 696.76174,112.12561 C 697.3817,112.025 697.98188,111.97468 698.56228,111.97467 C 699.47903,111.97468 700.26057,112.07782 700.90692,112.2841 C 701.55985,112.49039 702.08747,112.79981 702.4898,113.21237 C 702.74042,113.46394 702.91849,113.77587 703.02403,114.14818 C 703.12955,114.51546 703.18231,115.0689 703.18232,115.80849"
       id="text1975" />
    <path
       transform="matrix(0.607126,0,0,0.607126,226.656,-484.7136)"
       d="M 700.65168,936.04848 C 735.54579,894.17554 606.34187,941.69907 660.05195,950.98179 C 713.76203,960.26451 608.00349,872.13239 626.81946,923.28805 C 645.63543,974.4437 669.08081,838.78806 634.1867,880.661 C 599.29259,922.53393 728.49651,875.01041 674.78643,865.72769 C 621.07634,856.44496 726.83489,944.57708 708.01892,893.42143 C 689.20295,842.26577 665.75756,977.92141 700.65168,936.04848 z "
       inkscape:randomized="0"
       inkscape:rounded="-1.26"
       inkscape:flatsided="true"
       sodipodi:arg2="1.2183371"
       sodipodi:arg1="0.69473828"
       sodipodi:r2="37.463398"
       sodipodi:r1="43.259007"
       sodipodi:cy="908.35474"
       sodipodi:cx="667.41919"
       sodipodi:sides="6"
       id="path3782"
       style="fill:red;fill-opacity:0.32156863;stroke:black;stroke-width:5;stroke-miterlimit:4;stroke-dasharray:none;stroke-opacity:1"
       sodipodi:type="star" />
  </g>
</svg>
